<mxfile host="app.diagrams.net" modified="2023-11-11T21:45:17.476Z" agent="Mozilla/5.0 (Macintosh; Intel Mac OS X 10_15_7) AppleWebKit/537.36 (KHTML, like Gecko) Chrome/118.0.0.0 Safari/537.36" etag="XGW_QHilAt2po6lCdlvp" version="22.1.0" type="github" pages="2">
  <diagram name="Page-1" id="c4acf3e9-155e-7222-9cf6-157b1a14988f">
    <mxGraphModel dx="2181" dy="917" grid="1" gridSize="10" guides="1" tooltips="1" connect="1" arrows="1" fold="1" page="0" pageScale="1" pageWidth="850" pageHeight="1100" background="none" math="0" shadow="0">
      <root>
        <mxCell id="0" />
        <mxCell id="1" parent="0" />
        <mxCell id="SWCbF4250IS1tGv3gK87-6" style="rounded=0;orthogonalLoop=1;jettySize=auto;html=1;edgeStyle=elbowEdgeStyle;" parent="1" source="T_VBmHh6CQnNHwD42FFN-5" target="FL9K62EaHGy_0KdFEDnW-7" edge="1">
          <mxGeometry relative="1" as="geometry">
            <mxPoint x="80" y="322.5" as="sourcePoint" />
            <mxPoint x="131.23500000000013" y="322.26" as="targetPoint" />
          </mxGeometry>
        </mxCell>
        <mxCell id="T_VBmHh6CQnNHwD42FFN-5" value="&lt;b&gt;Старт&lt;/b&gt;" style="swimlane;fontStyle=0;align=center;verticalAlign=top;childLayout=stackLayout;horizontal=1;startSize=30;horizontalStack=0;resizeParent=1;resizeParentMax=0;resizeLast=0;collapsible=0;marginBottom=0;html=1;rounded=1;absoluteArcSize=1;arcSize=50;whiteSpace=wrap;" parent="1" vertex="1">
          <mxGeometry x="-60" y="280" width="140" height="80" as="geometry" />
        </mxCell>
        <mxCell id="T_VBmHh6CQnNHwD42FFN-9" value="behavior1" style="fillColor=none;strokeColor=none;align=left;verticalAlign=middle;spacingLeft=5;whiteSpace=wrap;html=1;" parent="T_VBmHh6CQnNHwD42FFN-5" vertex="1">
          <mxGeometry y="30" width="140" height="25" as="geometry" />
        </mxCell>
        <mxCell id="T_VBmHh6CQnNHwD42FFN-12" value="behavior1" style="fillColor=none;strokeColor=none;align=left;verticalAlign=middle;spacingLeft=5;whiteSpace=wrap;html=1;" parent="T_VBmHh6CQnNHwD42FFN-5" vertex="1">
          <mxGeometry y="55" width="140" height="25" as="geometry" />
        </mxCell>
        <mxCell id="FL9K62EaHGy_0KdFEDnW-3" style="edgeStyle=orthogonalEdgeStyle;rounded=0;orthogonalLoop=1;jettySize=auto;html=1;" edge="1" parent="1" source="FL9K62EaHGy_0KdFEDnW-1" target="T_VBmHh6CQnNHwD42FFN-5">
          <mxGeometry relative="1" as="geometry" />
        </mxCell>
        <mxCell id="FL9K62EaHGy_0KdFEDnW-1" value="" style="ellipse;whiteSpace=wrap;html=1;fillColor=#000000;" vertex="1" parent="1">
          <mxGeometry x="-110" y="310" width="20" height="20" as="geometry" />
        </mxCell>
        <mxCell id="FL9K62EaHGy_0KdFEDnW-4" style="rounded=0;orthogonalLoop=1;jettySize=auto;html=1;exitX=0.718;exitY=0.482;exitDx=0;exitDy=0;exitPerimeter=0;entryX=0;entryY=0.5;entryDx=0;entryDy=0;" edge="1" parent="1" source="FL9K62EaHGy_0KdFEDnW-5">
          <mxGeometry relative="1" as="geometry">
            <mxPoint x="-420" y="290" as="targetPoint" />
          </mxGeometry>
        </mxCell>
        <mxCell id="FL9K62EaHGy_0KdFEDnW-5" value="" style="html=1;points=[];perimeter=orthogonalPerimeter;fillColor=strokeColor;" vertex="1" parent="1">
          <mxGeometry x="-520" y="292.5" width="5" height="80" as="geometry" />
        </mxCell>
        <mxCell id="FL9K62EaHGy_0KdFEDnW-6" style="rounded=0;orthogonalLoop=1;jettySize=auto;html=1;exitX=0.407;exitY=0.479;exitDx=0;exitDy=0;exitPerimeter=0;entryX=0;entryY=0.5;entryDx=0;entryDy=0;" edge="1" parent="1" source="FL9K62EaHGy_0KdFEDnW-5">
          <mxGeometry relative="1" as="geometry">
            <mxPoint x="-506" y="341.5" as="sourcePoint" />
            <mxPoint x="-420" y="375" as="targetPoint" />
          </mxGeometry>
        </mxCell>
        <mxCell id="FL9K62EaHGy_0KdFEDnW-7" value="" style="rhombus;whiteSpace=wrap;html=1;" vertex="1" parent="1">
          <mxGeometry x="-5" y="400" width="30" height="30" as="geometry" />
        </mxCell>
        <mxCell id="FL9K62EaHGy_0KdFEDnW-8" value="ВыборСпособа" style="swimlane;fontStyle=1;align=center;verticalAlign=top;childLayout=stackLayout;horizontal=1;startSize=30;horizontalStack=0;resizeParent=1;resizeParentMax=0;resizeLast=0;collapsible=0;marginBottom=0;html=1;rounded=1;absoluteArcSize=1;arcSize=50;whiteSpace=wrap;" vertex="1" parent="1">
          <mxGeometry x="-60" y="460" width="140" height="80" as="geometry" />
        </mxCell>
        <mxCell id="FL9K62EaHGy_0KdFEDnW-9" value="behavior1" style="fillColor=none;strokeColor=none;align=left;verticalAlign=middle;spacingLeft=5;whiteSpace=wrap;html=1;" vertex="1" parent="FL9K62EaHGy_0KdFEDnW-8">
          <mxGeometry y="30" width="140" height="25" as="geometry" />
        </mxCell>
        <mxCell id="FL9K62EaHGy_0KdFEDnW-10" value="behavior1" style="fillColor=none;strokeColor=none;align=left;verticalAlign=middle;spacingLeft=5;whiteSpace=wrap;html=1;" vertex="1" parent="FL9K62EaHGy_0KdFEDnW-8">
          <mxGeometry y="55" width="140" height="25" as="geometry" />
        </mxCell>
        <mxCell id="FL9K62EaHGy_0KdFEDnW-11" style="rounded=0;orthogonalLoop=1;jettySize=auto;html=1;elbow=vertical;edgeStyle=elbowEdgeStyle;" edge="1" parent="1" source="FL9K62EaHGy_0KdFEDnW-7" target="FL9K62EaHGy_0KdFEDnW-8">
          <mxGeometry relative="1" as="geometry">
            <mxPoint x="210" y="329.62" as="sourcePoint" />
            <mxPoint x="300" y="329.62" as="targetPoint" />
          </mxGeometry>
        </mxCell>
        <mxCell id="FL9K62EaHGy_0KdFEDnW-13" value="ВыборСобытия" style="swimlane;fontStyle=1;align=center;verticalAlign=top;childLayout=stackLayout;horizontal=1;startSize=30;horizontalStack=0;resizeParent=1;resizeParentMax=0;resizeLast=0;collapsible=0;marginBottom=0;html=1;rounded=1;absoluteArcSize=1;arcSize=50;whiteSpace=wrap;" vertex="1" parent="1">
          <mxGeometry x="-60" y="590" width="140" height="80" as="geometry" />
        </mxCell>
        <mxCell id="FL9K62EaHGy_0KdFEDnW-14" value="behavior1" style="fillColor=none;strokeColor=none;align=left;verticalAlign=middle;spacingLeft=5;whiteSpace=wrap;html=1;" vertex="1" parent="FL9K62EaHGy_0KdFEDnW-13">
          <mxGeometry y="30" width="140" height="25" as="geometry" />
        </mxCell>
        <mxCell id="FL9K62EaHGy_0KdFEDnW-15" value="behavior1" style="fillColor=none;strokeColor=none;align=left;verticalAlign=middle;spacingLeft=5;whiteSpace=wrap;html=1;" vertex="1" parent="FL9K62EaHGy_0KdFEDnW-13">
          <mxGeometry y="55" width="140" height="25" as="geometry" />
        </mxCell>
        <mxCell id="FL9K62EaHGy_0KdFEDnW-16" style="edgeStyle=orthogonalEdgeStyle;rounded=0;orthogonalLoop=1;jettySize=auto;html=1;" edge="1" parent="1" source="FL9K62EaHGy_0KdFEDnW-10" target="FL9K62EaHGy_0KdFEDnW-13">
          <mxGeometry relative="1" as="geometry" />
        </mxCell>
        <mxCell id="FL9K62EaHGy_0KdFEDnW-17" value="ВыборПола" style="swimlane;fontStyle=1;align=center;verticalAlign=top;childLayout=stackLayout;horizontal=1;startSize=30;horizontalStack=0;resizeParent=1;resizeParentMax=0;resizeLast=0;collapsible=0;marginBottom=0;html=1;rounded=1;absoluteArcSize=1;arcSize=50;whiteSpace=wrap;" vertex="1" parent="1">
          <mxGeometry x="-60" y="720" width="140" height="80" as="geometry" />
        </mxCell>
        <mxCell id="FL9K62EaHGy_0KdFEDnW-18" value="behavior1" style="fillColor=none;strokeColor=none;align=left;verticalAlign=middle;spacingLeft=5;whiteSpace=wrap;html=1;" vertex="1" parent="FL9K62EaHGy_0KdFEDnW-17">
          <mxGeometry y="30" width="140" height="25" as="geometry" />
        </mxCell>
        <mxCell id="FL9K62EaHGy_0KdFEDnW-19" value="behavior1" style="fillColor=none;strokeColor=none;align=left;verticalAlign=middle;spacingLeft=5;whiteSpace=wrap;html=1;" vertex="1" parent="FL9K62EaHGy_0KdFEDnW-17">
          <mxGeometry y="55" width="140" height="25" as="geometry" />
        </mxCell>
        <mxCell id="FL9K62EaHGy_0KdFEDnW-20" value="КарточкаТовара" style="swimlane;fontStyle=1;align=center;verticalAlign=top;childLayout=stackLayout;horizontal=1;startSize=30;horizontalStack=0;resizeParent=1;resizeParentMax=0;resizeLast=0;collapsible=0;marginBottom=0;html=1;rounded=1;absoluteArcSize=1;arcSize=50;whiteSpace=wrap;" vertex="1" parent="1">
          <mxGeometry x="-60" y="840" width="140" height="80" as="geometry" />
        </mxCell>
        <mxCell id="FL9K62EaHGy_0KdFEDnW-21" value="behavior1" style="fillColor=none;strokeColor=none;align=left;verticalAlign=middle;spacingLeft=5;whiteSpace=wrap;html=1;" vertex="1" parent="FL9K62EaHGy_0KdFEDnW-20">
          <mxGeometry y="30" width="140" height="25" as="geometry" />
        </mxCell>
        <mxCell id="FL9K62EaHGy_0KdFEDnW-22" value="behavior1" style="fillColor=none;strokeColor=none;align=left;verticalAlign=middle;spacingLeft=5;whiteSpace=wrap;html=1;" vertex="1" parent="FL9K62EaHGy_0KdFEDnW-20">
          <mxGeometry y="55" width="140" height="25" as="geometry" />
        </mxCell>
        <mxCell id="FL9K62EaHGy_0KdFEDnW-23" value="Заявка" style="swimlane;fontStyle=1;align=center;verticalAlign=top;childLayout=stackLayout;horizontal=1;startSize=30;horizontalStack=0;resizeParent=1;resizeParentMax=0;resizeLast=0;collapsible=0;marginBottom=0;html=1;rounded=1;absoluteArcSize=1;arcSize=50;whiteSpace=wrap;" vertex="1" parent="1">
          <mxGeometry x="-60" y="950" width="140" height="80" as="geometry" />
        </mxCell>
        <mxCell id="FL9K62EaHGy_0KdFEDnW-24" value="behavior1" style="fillColor=none;strokeColor=none;align=left;verticalAlign=middle;spacingLeft=5;whiteSpace=wrap;html=1;" vertex="1" parent="FL9K62EaHGy_0KdFEDnW-23">
          <mxGeometry y="30" width="140" height="25" as="geometry" />
        </mxCell>
        <mxCell id="FL9K62EaHGy_0KdFEDnW-25" value="behavior1" style="fillColor=none;strokeColor=none;align=left;verticalAlign=middle;spacingLeft=5;whiteSpace=wrap;html=1;" vertex="1" parent="FL9K62EaHGy_0KdFEDnW-23">
          <mxGeometry y="55" width="140" height="25" as="geometry" />
        </mxCell>
        <mxCell id="FL9K62EaHGy_0KdFEDnW-26" value="Уточнение" style="swimlane;fontStyle=1;align=center;verticalAlign=top;childLayout=stackLayout;horizontal=1;startSize=30;horizontalStack=0;resizeParent=1;resizeParentMax=0;resizeLast=0;collapsible=0;marginBottom=0;html=1;rounded=1;absoluteArcSize=1;arcSize=50;whiteSpace=wrap;" vertex="1" parent="1">
          <mxGeometry x="150" y="840" width="140" height="80" as="geometry" />
        </mxCell>
        <mxCell id="FL9K62EaHGy_0KdFEDnW-27" value="behavior1" style="fillColor=none;strokeColor=none;align=left;verticalAlign=middle;spacingLeft=5;whiteSpace=wrap;html=1;" vertex="1" parent="FL9K62EaHGy_0KdFEDnW-26">
          <mxGeometry y="30" width="140" height="25" as="geometry" />
        </mxCell>
        <mxCell id="FL9K62EaHGy_0KdFEDnW-28" value="behavior1" style="fillColor=none;strokeColor=none;align=left;verticalAlign=middle;spacingLeft=5;whiteSpace=wrap;html=1;" vertex="1" parent="FL9K62EaHGy_0KdFEDnW-26">
          <mxGeometry y="55" width="140" height="25" as="geometry" />
        </mxCell>
        <mxCell id="FL9K62EaHGy_0KdFEDnW-29" value="" style="shape=image;verticalLabelPosition=bottom;labelBackgroundColor=default;verticalAlign=top;aspect=fixed;imageAspect=0;image=data:image/png,iVBORw0KGgoAAAANSUhEUgAAA4sAAADACAYAAACtZPZRAAABX2lDQ1BJQ0MgUHJvZmlsZQAAKJFtkU9LQkEUxY9lSCnUIoKixVu0iSz06aalaYRgIJZkQcTz+S942vB8Ee2kdcvoC0R/Ni3a5KIWfQSjKGjVrg8QuDF5ndFKrWa4c39zuHc43AH6PJoQhhNAsWSZiaUFJbW+obje4IaH4jBmNL0sQvF4jDd8595Vf4JD5odZ+dZW9OBy87526G8UH0+vbnJ/63vWUCZb1pk/GKouTAtw+MjxPUtIrpBHTZoiH0nOt/lCcrrNt62a1USYXCOP6AUtQ34le9Nder6Li8au/uVBuvdkS8kV5jHGJCJYRIxbQRIqgvDzXOaM/u8JtnrC2IHAPkxsI48CLHaHqAgYyJKjKEHHHLxkFT5GQM769ww7mqCX+QjQf9LR0hNAlR7GBzva1Dk/KgVcV4Rmaj+TddSd5VxAbbO7Cgwc2/b7GuCaBprPtt2o2nbzjO+/AHf1T4xLY3cXdZgFAAAAVmVYSWZNTQAqAAAACAABh2kABAAAAAEAAAAaAAAAAAADkoYABwAAABIAAABEoAIABAAAAAEAAAOLoAMABAAAAAEAAADAAAAAAEFTQ0lJAAAAU2NyZWVuc2hvdEDodc8AAAHWaVRYdFhNTDpjb20uYWRvYmUueG1wAAAAAAA8eDp4bXBtZXRhIHhtbG5zOng9ImFkb2JlOm5zOm1ldGEvIiB4OnhtcHRrPSJYTVAgQ29yZSA2LjAuMCI+CiAgIDxyZGY6UkRGIHhtbG5zOnJkZj0iaHR0cDovL3d3dy53My5vcmcvMTk5OS8wMi8yMi1yZGYtc3ludGF4LW5zIyI+CiAgICAgIDxyZGY6RGVzY3JpcHRpb24gcmRmOmFib3V0PSIiCiAgICAgICAgICAgIHhtbG5zOmV4aWY9Imh0dHA6Ly9ucy5hZG9iZS5jb20vZXhpZi8xLjAvIj4KICAgICAgICAgPGV4aWY6UGl4ZWxZRGltZW5zaW9uPjE5MjwvZXhpZjpQaXhlbFlEaW1lbnNpb24+CiAgICAgICAgIDxleGlmOlBpeGVsWERpbWVuc2lvbj45MDc8L2V4aWY6UGl4ZWxYRGltZW5zaW9uPgogICAgICAgICA8ZXhpZjpVc2VyQ29tbWVudD5TY3JlZW5zaG90PC9leGlmOlVzZXJDb21tZW50PgogICAgICA8L3JkZjpEZXNjcmlwdGlvbj4KICAgPC9yZGY6UkRGPgo8L3g6eG1wbWV0YT4Kvt8WYgAAQABJREFUeAHtnQncVdP6x1eRBhJdRaKE5pAxSjSZKi6iUBKRMZLrKmMuIZkzlOkaiwyRJmNlbJBrKCoNIilDhrqVIv++y3+/97zHOe/ZZ9jnrL3Pb30+73umvdde67vW2Wc965nK/bGpGIfLDjvsYJYvX+5wC9U0ERABERABEfgfgfXr15tdd93VLF269H9v6pkIiECoCWg9GurhU+P/n0AmYl950RMBERABERABEcgdgS222MLwg7xhw4bcVaqaREAEREAERKAABCQsFgC6LikCIiACIhBtAhUrVjRr166NdifVOxEQAREQgcgTkLAY+SFWB0VABERABPJNAO2ihMV8U9f1REAEREAEck1AwmKuiao+ERABERCBoieAZnHdunVFz0EAREAEREAEwk1AwmK4x0+tFwEREAERcJCAzFAdHBQ1SQREQAREIG0CEhbTRqYTREAEREAERKBsAhIWy+ajT0VABERABMJBQMJiOMZJrRQBERABEQgRgUqVKpk1a9aEqMVqqgiIgAiIgAj8lYCExb8y0TsiIAIiIAIikBUBBbjJCp9OFgEREAERcISAhEVHBkLNEAEREAERiA4BNIu//vprdDqknoiACIiACBQlAQmLRTns6rQIiIAIiECQBKRZDJKu6hYBERABEcgXAQmL+SKt64iACIiACBQNATSLyrNYNMOtjoqACIhAZAlIWIzs0KpjIiACIiAChSKAsKg8i4Wir+uKgAiIgAjkioCExVyRVD0iIAIiIAIi8P8EpFnUVBABERABEYgCAQmLURhF9UEEREAERMApAtIsOjUcaowIiIAIiECGBCQsZghOp4mACIiACIhAMgIIi4qGmoyO3hcBERABEQgLAQmLYRkptVMEREAERCA0BCpWrCifxdCMlhoqAiIgAiKQjICExWRk9L4IiIAIiIAIZEhAZqgZgtNpIiACIiACThGQsOjUcKgxIiACIiACUSBQpUoVaRajMJDqgwiIgAgUOQEJi0U+AdR9ERABERCB3BOQGWrumapGERABERCB/BOQsJh/5rqiCIiACIhAxAlUrlxZmsWIj7G6JwIiIALFQEDCYjGMsvooAiIgAiKQVwKKhppX3LqYCIiACIhAQAQkLAYEVtWKgAiIgAgULwE0i0qdUbzjr56LgAiIQFQISFiMykiqHyIgAiIgAs4QkBmqM0OhhoiACIiACGRBQMJiFvB0qgiIgAiIgAhA4LPPPisFIlk01PjjSp2kFyIgAiIgAiLgGAEJi44NiJojAiIgAiIQPgITJ040U6ZMKWl4IjNUPuc4FREQAREQAREICwEJi2EZKbVTBERABETAWQI9evQwffr0KREY44VFBEU+5zgVERABERABEQgLAQmLYRkptVMEREAERMBZAjVr1jQHHHCA6dmzpxUYt9xyy5LUGQiKp556qjnooIMMx6mIgAiIgAiIQFgISFgMy0ipnSIgAiIgAk4TuPzyy8369evN6aefbmbNmmWFRQTFXr16mQ0bNpjLLrvM6farcSIgAiIgAiIQT6DcH5tK/Jsuvd5hhx3M8uXLXWqS2iICIiACIiACCQm0a9fOzJs3z5Bnce3atYZANzzuuuuu5q233kp4jt4UARFwn4DWo+6PkVqYmkAmYp80i6m56ggREAEREAER8EVgwIABpkKFClaruMUWW5jffvvNnjdw4EBf5+sgERABERABEXCJgIRFl0ZDbREBERABEQg1gcMPP9xsu+225vfff7cC47p168xWW21lOnbsGOp+qfEiIAIiIALFSUDCYnGOu3otAiIgAiIQEIG+ffuaqlWrltSOD6OKCIiACIiACISRgITFMI6a2iwCIiACIuAsge7du5ty5crZ9mGSevHFFzvbVjVMBERABERABMoiIGGxLDr6TAREQAREQATSJFCxYkWbQgOBsXXr1obXKiIgAiIgAiIQRgISFsM4amqzCIiACIiA0wT69OljKleubIYMGeJ0O9U4ERABERABESiLgFJnlEVHn4mACIiACDhNoHPnzs62b9WqVaV8F11s6Lhx41xsltokAs4RUOoM54ZEDcqAgFJnZABNp4iACIiACIhAEARig9wEUb/qFAEREAEREIGgCcgMNWjCql8EREAEREAEREAEREAEREAEQkhAwmIIB01NFgEREAEREAEREAEREAEREIGgCUhYDJqw6hcBERABERABERABERABERCBEBKQsBjCQVOTRUAEREAEREAEREAE8kegfPnyJpPgIPlroa4kAsEQkLAYDFfVKgIiIAIiIAIiIAIiEBEC5EtdvXp1RHqjboiAfwISFv2z0pEiIAIiIAJFTiCZZmHjxo1pkfF7fLLrpXUxHSwCIpA1gSqVq0hYzJqiKggjgc3D2Gi1WQREQAREQAQgEHSewA0bNpjp06ebKVOmmLffftssWrTIzJ4922yxxRZ2AH766Sdz6623mjFjxpgZM2aYKlWqlAzM77//burWrWuWLFliNttss5L3161bZ/bdZ1/Ttl1b07dvX9OwYcOSz2KfcG0+23HHHU2jRo1Ms2bNzN57722aN29uqlWrFnuonouACARMoHKVyobcqbVq1Qr4SqpeBNwiIGHRrfFQa0RABERABApMAGHwtddes8LhBx98YGrXrm1atWpl+vXrZw455BArKK5fv97ce++9ZsSIEebQQw81kyZNKiUo0gUERHItfvvtt6UWmJUqVTKTp0w29913n/n73/9u9txzTys0tm7dulTPK1SoYD777DMrnNKOTz/91ArHCxcuNNWrVzcNGjQwe+21lxUi999/f7P99tuXOl8vREAEckegcuXK0izmDqdqChGBcptMXP5wub077LCDWb58uctNVNtEQAREQARCTODLL780r7/+upk6darVDiLMHXjggVYIbN++vdluu+1KesdP5pNPPmluueUWs/vuu5trr73WNG3atOTz+CcHH3ywGTZsmNUIxn/Ga7SMjzzyiHnwwQfNVlttZc477zzTpUuXUprIROfNmTOnRIhEoORv8803t21p3LhxiQZy1113TXS63hMBEUiTwBFHHGGuuOIKu2GU5qk6XAScIZCJ2Cdh0ZnhU0NEQAREQATyQQDTUTSHCIfvvfee1Ra0aNHCoNlDOKxXr17CZrz88svm+uuvt5rFa665xtei8ZhjjjHnn3++YaFZVuEH/IUXXjDDhw83K1asML169TK9e/e2msmyzov9DKF31qxZ5uOPP7aCJJrIX3/91ZqwNmnSxOyzzz5mjz32KFO4ja1Pz0VABP5H4PjjjzdnnHGG6dy58//e1DMRCBkBCYshGzA1VwREQAREIHgCaO/wN8Tv8J133rE+hJhvovVDOMQHsKzy/vvvm0GDBllz0ssuu8xq/so6PvYzFpeYqZ522mmxb5f5fObMmebOO++0Wk60jAibO+20U5nnJPvw+++/t/V88skn5sMPPzTz5883K1eutFpRzF8RHuk/j7F+lcnq0/siUKwE8C/G9JtHFREIK4FMhEX5LIZ1tNVuERABERCBpAQQuN544w0rJGKyudtuu1m/Q4S+gw46qCRATdIKNn2AYIUmEW0d/opo+/AjTKfUrFnTagrTOQf/wyeeeMJ88cUX1oS1bdu2VuvJIpUAN+kUTGg7duxo/7zz0Kx6GsjJkydbbeayZcsMJqsIjpjV7rvvvtYX0gvk452rRxEoVgLcQxYvXlys3Ve/i5iAzFCLePDVdREQARGICoHPP//cIPh4focEgCEoTZs2bezf1ltv7bur+MkPHjzYvPLKK1ZARFAkuEUmhUip1Dd06NBMTrfnINzh04hv4y677GLOPfdc06lTp4zrS3QiUR4/+ugjK0SihcQH8quvvrLRXD0NJEIsEVnJN6ciAsVGYPz48eaBBx6w5uLF1nf1NzoEMtEsSliMzvirJyIgAiJQNAS+++67kqA0+B2SZgKNIdFKO3ToYNNNpAvj559/NrfddpsZNWqUOe644wwmpwid2RQ0hPhHIuhlW4jAOnr0aBuBlednnnmm6dmzZ2DC29q1a60AiZaWCLFoaPGLJB0IQiOmqwcccIB9lACZ7ejqfNcJYGnQrVs385///Mf1pqp9IpCUgITFpGj0gQiIgAiIQJgJILi8+eabVnuI3+HXX39tTSU94ZAIoJkWBK977rnH3H///dbc88orrzR16tTJtLpS57366qvmjjvuMGglclmI3krqDQS47t27m7PPPtvUqFEjl5dIWBf+n2geySmJAMkfeSThhfAoATIhNr0ZAQJsSGGKihWDNkciMKBF2oVMhEX5LBbpZFG3RUAERMBlAhs3brQCied3OHfuXFO/fn0rzN14441Wi5htQBau8fjjj1ttIoErnn322ZxHCiWB9w8//JBz1ATm4Q9zUVJzkOrjqKOOMhdccIGNfprzC/5/haQVwRyVP68QcRUBcvr06fZx5MiRJRrIeAFSPpAeNT2GjQD+yqRz4zuXKihW2Pqm9opAWQRkhloWHX0mAiIgAiKQNwKYeSEcen6HBIchYikBXtAgkocwV2Xs2LEGoRNfxquuuspeJ1d1x9ZDNNKWLVvaYDmx7+f6+bfffmsD1WBCi4kofo3t2rXL9WV81xcvQKKB9ExYiUSLH6TnA5lu0CDfjdCBIpBjAnyvsGK48MILc1yzqhOB/BDIRLMoYTE/Y6OriIAIiIAIxBHA79DLdzht2jTz22+/WY0hqSbwO2QXP9eFFBr/+te/DAFdSLAddM40fph33nlns2jRIl8RWLPtL2aijz32mA2Ig6ncOeeca7p2PTHtKK7ZtiPR+Z4PJCasaCLJA0kQHaKwEuUVLSS5IBEky5cvn6gKvScCBSWAD/K4cePMU089VdB26OIikCkBCYuZktN5IiACIiACgRPw/A7Jd4jQht/hfvvtZ/MQYlLZqFGjwNqAZou0GQsWLDAXX3yxOfXUU/MmkKDpmzhxohUaA+tggopZ1OLXiE8haT8IiLPNNtskOLJwb61evdrmfySXJXkgMfFbsWKFNTlGaESIRIBs0qRJ4RqpK4vA/xMgxQwRljGL14aGpkUYCUhYDOOoqc0iIAIiEFEC/CjNmEG+w9etcIgggN+hZ1pK9NJs/Q5ToSNXIbkSCYpDEJjzzjsvLxq+2HahKb3llltK+fnFfh70c6I33nXXXXYMjjnmGOvXWK9evaAvm3H9v/zyi/GERx5ZmJM+BPM/BG/MV8kD6XIfMu68TnSeABGAR4wYkXbOU+c7pgYWBQEJi0UxzOqkCIiACLhLYOHChSUpLQh4QlJ48h3iP4fQlEu/w7IoYOI6ZMgQg2/iKaecYvr372/9E8s6J6jPunTpYk477TSDoFbIsnTpUhv19bnnnrMCV9++fW1gnEK2ye+1f/zxR4OpMoIvGkiiwBKd0gugQ8ARNh+23357v1XqOBHIiADfG0ynsVBQEYGwEZCwGLYRU3tFQAREIOQEWMSTHgLTUvIdkoaCyJye3+GOO+6Y1x5i1kiqCvz2OnbsaAYOHFhwAeKcc86xmrCzzjorryySXQxGDz30kM39iDBP0I5jjz02dGZ133zzjRUgP/jgg5I0HkRrxWQV01VMWNECuWZ6m2xc9H44CLz44ovm3nvvNS+//HI4GqxWikAMAQmLMTD0VAREQAREIPcEiHKJvyHC4VtvvWUjXLIob926tTnssMNynnrCbw8QUh988EFz9913WwGBCKfkRHOh0BaEGALquFR+//13M2bMGBtFdeXKleb00083vXv3NlWqVHGpmWm1hRx4aB9nzpxpPv74YxuFlvyTTZs2tekOWrRoYR8ZDxURyIQA9xr8aSdMmGA1jJnUoXNEoFAEJCwWiryuKwIiIAIRJoDZH1FLEQ6JYokQ5pmWokUsZO48fviefPJJmyuxbt265pprrnEuBxp5EAmsc+eddzo7S959912brxEt3QknnGDOP/98k2+tcBBwmB8fffSRmTVrln1EkCSFR506dazmkTQeBFniUUUE/BLABLV69eo27Y7fc3ScCLhAQMKiC6OgNoiACIhAyAmQzsBLaYHf4ZZbbmlzBZLvEN/DatWqOdFDIowOHjzYau2uvPJKG6XQiYbFNeKZZ54xzz//vCEHouuFFB/33HOP9fUkt+UFF1wQuUAepBdhA4S57fk/kg+zYcOGVmOE6SpBdBAoVUQgEYHp02ds2lA5zwZiSvS53hMBVwlIWHR1ZNQuERABEXCYADkHJ0+ebP+IGkrkSTSGCAvkO9xll12caj1asOuuu8788MMP1ifxuOOOc6p98Y158803bUTWV155Jf4jZ18zBx544AHr10gwD/wuO3Xq5Gx7s20Y/UV4RAOJAIkGnUUV5oYEzyH6Kias8n/MlnR0zmdT4fbbb7dWFtHplXoSdQISFqM+wuqfCIiACOSAAL5qBKNBQMT/ED8vfLpIaYFwyMLYxULqjWuvvdZGwsQMjAijQafeyAWHefPmme7du4dSC4F/1ujRo22qAJ6Tq7Fnz56mYsWKuUDjdB2Yq+L7OGPGDGvCyjji/0gEVgTIli1b2ueFNMN2GmDEGzd06FCbF/Thhx+OeE/VvSgRkLAYpdFUX0RABEQghwRY6L7xxhtWQCR3Xe3ata1wSIJpNIiVK1fO4dVyWxVmseRKnDp1qhVWCF0fJmGFvIEIF5h4hrm8/vrr5r777rPCOulIyFtZs2bNMHcprbazyML/EQES30cC6DA38eElyBO+j2ibXAmslFbndHDaBH7++Wc73gS60ZinjU8nFIiAhMUCgddlRUAERMA1AkS3xOwRAQstItpE8tAdemibTVFLO4RikU8fbr75ZkNewJNOOslccskloTUDxJR39uzZecszGeR8RMNL1NlJkyaZI4880vo1Nm7cOMhLOls3aUgwXWUDBiGSMfaiZSJAoqXHpFvmq84OYVYNI6DWt99+azdRsqpIJ4tAnghIWMwTaF1GBERABFwj4KW08ExLMaEj1xz5Dklp0ahRI9eanLQ9a9assbkSH330Udt2Uk7UqlUr6fFh+ICxePrpp039+vXD0FxfbWSRPGLECDNy5Ehrxky+xvbt2/s6N8oHLVu2zPo/Yr6K/+PcuXOt+Sr+j8wDNm14HgYT6iiPUy76xoYWvqxYbey88865qFJ1iECgBCQsBopXlYuACIiAWwQwg3v11VcNAVRiU1qwYEebUaFCBbcanKI1GzZsMPj/3HXXXVYjQ4TTBg0apDgrHB8jsKOFwC80aoWNiscee8zmucR/D/PUrl27FjSlikuMPfNVhEe0kHxvv/nmGxt9FfNkhA3MV3faaSeXmq22+CQwYMAAq02+7bbbfJ6hw0SgcAQkLBaOva4sAiIgAoETQGNBSospU6aYadOmWT9DgmyQ0gIB0ZWUFpmAQOtGwAhy+yFUuRpkJ5O+cQ5mtOQv5C/KZfz48Wb48OHWP7NXr17mrLPOkglmggHH343vMOar+D/iC4kfLsFzvNQd+EBWqlQpwdl6yyUCy5cvt37f48aNi8zmlkt81ZbcEpCwmFueqk0EREAECkoAc0y0hpg4vfXWW+a7776zWgiC0hC1tF69egVtXy4ujl8lwWvKly9v0CTSryiWCy+80GqSSHZfDAUBaNiwYXbeHnPMMZty0p1vSMGhkpwAQag87SMayCVLltjvOBsn++673yZrgRYKpJIcX0E/ufXWW+29+sUXXyxoO3RxEUhFQMJiKkL6XAREQAQcJ0CQDKJOIhwSSAQzTKKVoj3EtLRcuXKO98Bf89CokAaDXflLL73Umi36OzOcR5EX8rfffrN9DmcPMmv10qVLzb333muDFCH0EMkWnz2V1ATWrl1rNY8IkNwXMDVnDu2111428irmq/vvv7+pUqVK6sp0RKAEMKHHP7x///6Rtx4IFKQqD5yAhMXAEesCIiACIpBbAgSiwe+QqKWYpRE1sXXr1qZdu3Z28bHVVlvl9oIFrg3tCZrEDz74wPTr189gqhg238pMEN5///3W3JDUE8VYiBqKP+ojjzxi/va3v5lzzjnHHHfccVajXIw8Mu0zqTqmT59u7xVobxcuXGgDqyA0on1s2fKgSFgcZMqnkOdhBXLBBReYd955x1StWrWQTdG1RSApAQmLSdHoAxEQARFwg8CqVausYIjvIYsKcvD9mdLiUGuCGdWIegT0GDx4sBWMTz/9dHPRRRc5ndsx17PlhRdeME888YR59tlnc111qOrbuHGjGTNmjPVr/OGHH+xmwRlnnBGJlCKFGAiCC6GlR/uIEIn2kcWg5/uI9lG+j/kbmTPPPNNUr17dpvzJ31V1JRHwT0DCon9WOlIEREAE8kKAGzMaQ8/vcP78+aZJkyZWe0iETELpR7n89NNPBn+ep556yppn/fOf/zTbbrttlLucsG/MgYEDBxpSm6j8SYD8n/g14p/XpUsXq5UhwJFKdgTwdWS+IUAiSPKaPJ+YARM8h82pOnXqZHcRnZ2QAOlksAohMurhhx+e8Bi9KQKFJCBhsZD0dW0REAER+H8CX3zxRSnT0ho1apQyLa1cuXLkWaHxIHH7Aw88YAjIQ67EqGpN/QwmC/ajjz7apk3wc3wxHbNo0SJzzz33mLFjx1r/XEz5SGivkhsCnu8jmkcESLSPBJQi1yPCI77QCJKkPVHJngA+5wS04nGHHXbIvkLVIAI5JCBhMYcwVZUIiIAI+CWAKSmaQ/7effdd89///tcuwBCS0B4Wk7bk999/tzn3br/9dtO4cWMzaNAg++iXZVSPW7dunalfv77B50wlMQG00Gwu4NdI5FT8Gjt16pT4YL2bFQEEdO5VaHXRPjIvGzZsWKJ9JFhLMVoAZAU15mTS/+BTSnTUqAQli+menoaYgITFEA+emi4CIhAeAvhdxZqWfv7556ZZs2ZWe0jqh2LViuCXd9NNN9kgPVdfffWmYBstwzOoeWjp7rvvbqNaahFeNuz169eb0aNHmxEjRhiiTOIHduqpp9o8hGWfqU8zJYAvNWbBaB8RHtE+brfddvZeRvAcvsuYz6v4I8CmWceOHW0U6wEDBvg7SUeJQB4ISFjMA2RdQgREoDgJLF682BCUZsqUKVZQxLyIqKWktGAXvpiTZ5Pm41//+pfVqJIrkUWSyl8JYPKH1kyL7r+ySfYO37nhw4ebOXPmmO7du5uzzz7bYNatEjwBNGOe7+OHH35oECjZCCNgDn6PCJHFYFKfKWm0tUcecaS55dZbzFFHHZVpNTpPBHJKQMJiTnGqMhEQgWImwMLIMy0laumaNWtKmZbWqlWrmPHYvs+ePduamS5YsMDmF+vRo4dSIZQxK1gw/uMf/zDt27cv4yh9lIjAp59+an1gX375ZbsZgV8jZpMq+SNARGNMV9FAkvoGU1bMhQnShfCI9lH3xdLjAS+i/Y4cOTLywcxK91yvXCUgYdHVkVG7REAEnCfADRQTLIISkC8L09KmTZuWRC0tVtPSRANHsBZyJb799ttW03PeeecpOEYiUHHv9ezZ02oYTj755LhP9NIvgRUrVlhN46hRo2x6CIRGNPsq+SdA4JyZM2da4RHTVTSR5BdEeCRoDsIj99BiL88//7zBLH/8+PGmbt26xY5D/S8wAQmLBR4AXV4ERCBcBBB6Xn31VZv3kN1yzNsOOeQQG/qcR5lYlR7PlStXmiFDhtg8eQg8/fv3N9WqVSt9kF4lJXDJJZfYiLD9+vVLeow+8EeAgEGPPvqoeeihh6wJ+LnnnmtTs1SoUMFfBToqEAJogLHEYOMN7aNnuooJNsIjJqzFGHX1jjvuME8//bSZOHGi9ekOBL4qFQEfBCQs+oCkQ0RABIqXwOrVq61giPYQPzsWMuyAE7WUwDQ77bRT8cIpo+doEFjs4G9H7jDSYCgkfBnAknxE8B/m3ODBg5McobfTJcDCh5Qb+DV+/fXXplevXqZ3797axEgXZEDHL1u2zFogeGk78OMjSjL+jpiutmrVymy99dYBXd2tatksInDQc889ZzWwbrVOrSkWAhIWi2Wk1U8REAHfBAgNj/YQ09K5c+fahQqBaUhpQW4xleQEiOj38MMPW0ER07KrrrrKNGjQIPkJ+qRMArBEg016CJXcE+C7ftddd1nGxx57rMFEVcnnc885mxpJM+T5PWLC+tlnn5natWvbfI8tWrSwwmNUN+1YpPft29fMmzfPPPvss9rQyGYi6dyMCUhYzBidThQBEYgKAXayEQ4nT55sI/mxa33wwQdbzSEaxCpVqkSlq4H2Az8bNGGY5pIrEU2ASnYEJkyYYAXFMWPGZFeRzi6TwJdffmmD4ZDKBe0VCdK1MVQmsoJ9SJoUhHw2UYi8StTVLbfc0kZdxeoDzWOU/B5ZqF988cUlGsZtttmmYOx14eIkIGGxOMddvRaBoiaA79LUqVOtcIj28Ntvvy0xLUV7qIAC6U0PGJIGA66kwTjyyCPTq0BHJyWAD9dFF11kTaCTHqQPckbg559/tj6NmE+jrTrnnHPMMccck7P6VVEwBOL9HnEf8ILm4EtOsLGwJ7rHJBUhmY0j5V0NZh6p1sQEJCwm5qJ3RUAEIkaAnGuTJk2yQiLpG+rXr2+jlrZr184KiuXLl49Yj4PvTmwaDNI7kNMu7Auy4Kmld4WlS5eaI444wuYMTO9MHZ0NgQ0bNlizv/vuu89ugpx55pmGyLTFnBs1G575PpfvzdSpb27SPL5no6+yIdi8eXOD2SpWI1g9hDFozmWXXWY3jp566imZS+d7UhXx9SQsFvHgq+siEGUCP/74oyG/GqalRNoj4iHmSeSr469YAiQEMcaY7F133XVKgxEE3Lg6EVrq1atnYK4NjTg4eXo5ZcoUa6LKhhMRfdE21qxZM09X12VyQeD777+3Qhape2bMmGEQJps0aWKFR34XiLoalkjWBA578MEHbfAwIsWqiEDQBCQsBk1Y9YuACOSFAIFV8GF57bXX7KJg8eLF1gwJzSFRSxVkJfthIA3GzTffbCPznXLKKUqDkT1SXzU0atTIBluSgOILV2AHEexq2LBh1kLhqKOOssFwGBuV8BEgaA6CIxuJCI8LFiwwu+++uw2ag+CI9tHlFD+Yog4cOND6iBOYSUUEgiQgYTFIuqpbBEQgUAJffPFFqcA0RMgj2TYCIj/2YTQzChRYhpXji8hu9r///W8bEZY0GLVq1cqwNp2WLgEWr6R52HPPPdM9VccHQACTRsZj1KhRplmzZub888+3qXQCuJSqzBMBUv0QcdUTHtEi47NKrkc0jwQ6q169ep5a4+8y77//fknaFwLgqIhAUAQkLAZFVvWKgAjknMCaNWuszyGRS8l5SBADIhfyQ04uP+Xxyy1ytLUIiLfffrsNEEEajIYNG+b2IqotJYGjjz7ahs9njqu4Q4BNlMcee8yaBOLLeN5555kuXbpYk3d3WqmWZEKAiKuk6UD7SL5HIq6yQeb5PLoiPGKejq84pur33HOPcjFmMtg6JyUBCYspEekAERCBQhL46KOPrO8hETeJeIewQnQ7Fs4KbR/cyJBC4IYbbjDbbbedueaaQZsWSQcEdzHVXCYBksZjSt2jR48yj9OHhSHAQmrs2LFW2/j111+b008/3fTu3Vt+0YUZjkCuysbZ++/P2mQOPtW6O7gkPLJpQaRUzGnxZdxrr70CYaBKi5eAhMXiHXv1XAScJEAggpdffsVMmTLZmgWxY48ZEItlzEu32morJ9sdlUZhhkUaDLS2pMHAN0ulsAT++c9/mu23394uCL2WsHjdbLPNvJd6dIQAqQ3uuusuK1Acd9xx1q9x5513dqR1akauCPD9Q/OIhQu+8i4Ij0888YS5/vrrDRFT2bBQEYFcEZCwmCuSqkcERCAjAkR7jA1Ms2TJEkOENwRDch7utttuGdWrk9IjMG/ePDNo0CCrve3fv7859dRTFX0zPYSBHT106FDzww8/2GAW3kWef/55c/zxx3sv9egYAcwDCYbz4osv2kib5Mok159KNAmkEh7btm2bl9yIWN+cccYZNtLrbbfdZrbZZptoAlev8kpAwmJecetiIiACEFi0aJENTPPGG2/Y3dk6derYnIdoD/FBVGCa/M2T5cuX291oosiSS65v376mYsWK+WuArvQXAvFaw0cffdT66j788MP2WBLGo1VEoFdxm8BPP/1kHnroIev7u8suu5hzzz3XdOrUye1Gq3VZE0glPLIZGpQgh28/Qci4p7PRdOSRR2bdH1VQ3AQyEha/++67P/BjcbUQ5IIFkIoIiIAbBDBpJFcZgWkwc1y7Zq05qOWfgWlIOF6jRg03GhqxVkyaNCnpQmHVqlWGnecnn3zSnHDCCebSSy/Ny853xBAH0p0HHnjAaqOaNm1q6ydfKMEr8IsjSuPf//53g7mjy6H9AwET4koJmPL000+bESNGmN9++82cddZZVtj3uzFW1nc5xFiKpumxwiNRV/HFJ9oqkY6J4N26deucu1i8/vrr1nQdN44bb7xRPrRFM9ty39GMhMVNiUz/uPbaa+0CI/dNyr5GCYvZM1QNIpAtgY8//tjmI/MC05AA2QtM07x582yr1/kpCJCH66uvvjIXXnhhqSNZtKLpuHvY3abVwa2sXyKaXRV3CHzzzTd28YjPKMFt/vOf/1iN7yuvvGIj/5YvX95MmzbNnQarJWkRYBzvu+8+g+k3QYvOOeeclGkZ8IPE9xE/SJXwE+A+TEAaNlHZQGUukOcR4ZFIq1jY5MLCg3yS+DDi6oGWEdcOFRFIl0BGwuKmUMJ/kNOFic3OtGvh6iUspjsNdLwIZE8Acys0IJMnT7bhxvmhY0eTqKX8+CkwTfaM/dZAoAOC1CBQxOYGe+aZZ8yQIUPsopMNP+Xt80s0/8d169bNmp527tzZXH755dZ0ke/TuHHjzGmnnWbHMf+t0hVzSYANtbvvvttgjk96lAsuuCCpj/bKlStt2gZyO+LTrRItAuR5JFgOm6toHskhTA5PT3gk3yObRJmWiRMnmoEDB9pIqWgZd9xxx0yr0nlFSCAjYXHTSX/8+uuv5rrrrjPPPvusIVIbkZfKlSvnBEIJi04MgxpRBAQQRvCL4Adu4cKFNoBD+/btbeTS+vXrFwEB97qIedMxxxxjGAfPx23q1KkG4RBTqKuvvtp+5l7L1aJYAmgXEQqqVq1qzceWLl1qNQ0sKj/55BOZbsfCCvnzZcuWWTNjNnNIB4Q1AJql+ILJPgHA0EzKGiCeTrReoxFk45XfVrSCuFYxNw4++GBDsJxMNvq4dyAoYg5NTlA2JxRROVrzJqjeZCwseg364IMPrLBIRTfddJPZf//9vY8K9ihhsWDodeGIE1ixYoXVHrITzg8Yvsv4WyCY4HPh1/8m4pgK1j20u/vss48hwMHo0aPN3/72t005Eq+xgjybeieffHLB2qYLp0+AqIZoBPDpZfFIPjVSaLAhoBI9Avh2e8FwatasaYPhHHvssSUb8RMmTLCRLhEU2aTbeuutowdBPUpI4Ntvv7UaaITH6dOnm//+978GbSO/uwTLSSdqOCav5GX8+eefrfCIAKoiAmURyFpYpHIqIVrb0JuHmkMOPcSaPxUyYIWExbKGXJ+JgH8CXloLAtPwI0XCacxi2NnE9wEHfRU3CKA1ZPHAGHEPPPDAA60ZI/5QRGCUIO/GOKXTCrSLLVq0MPg3eQUB8oYbbvBe6jGCBPgukxqFoEYIkEQpxneVnLO77rqrDZCDZom0HNIMRXAC+OgSGmY2bTFdRXjk/o422vtt9hNp9cknR25S8txoTVOxPElH4PTRRB0SIQI5ERY9HuxqkxCUiG3c2Pr162eqVKnifZy3RwmLeUOtCxWYACkoMP+uV69ezlpCfjDP95AfIcK9e9pDfoyy8ZvIWSNV0V8InHjiidZXtHLlynZOnHLKKXb32M+i4S+V6Q1nCGAuxm8qETT57s2ePbuUH6ozDVVDAiHAJh1+jfg3YhlA0Cr8VjFPxiyVz1REgCjJ3qbuhx9+aH+38XFGeERzmGyzEGsFYo+Qjocoy/hHb7vttmUCxWya+aiUHGViitSHORUWPTKff/65FRrff/99a3vPTmiFChW8jwN/lLAYOGJdwAEC06fPMI8//ljWiwX8j/FpI8w2kdlIqfCn9rCdOeqoI7UwdWCsUzWBYDaE5EcjgUDBDjF+5KTEkKlaKnpuf452ES0x31N+21gIqhQfAVx+rrrqKrtIx+KDQtAwNhP69+9ffEDU46QEsEQgSA6aRyKtLl682GoPiUaORRCBc+ILZq7EIUHgJK0L/ozJorGS2ufTTz+10c0VnTeeZDRfByIseqi4uQ0aNMiwC0GiZ3a68yE0Slj0RkCPUSWA+RE+aGgA0fylW+bPn29/FBAQ8X8isjHaQ3aqcaJXCQ8BgowRndpbQHotxzwNrTPzA60jwqMER49OuB6x0iEoBeaILOhUioMAfqovvPCCeemllwyb7+TVxIILbZBXsCRAM6RFu0dEj/EEmDP4uBIwh1gDv6771Rx40IH2N79Dhw6lIqN+9tlnNhgaQbTYiEBwjNdKEpkXl4eNGzda33hF540nHr3XgQqLHi52N2699VYrNDL5CPsdP/m8Y3PxKGExFxRVh6sEyM/FghFfNCJb+in4vaA1JIreptQ3VrDANAXHeARECRF+KLp3DAtIFonxgmKilnLPxf+NEP0EzdCYJ6Lk5ntoF9H2swGbykTMzR6oVX4JxAqIuAHE+qsmq4PvNj6OWrQnI6T3YwngvoLwiEURc4wYI956gE1j3MfI7Tp48GCb/xEtI5uNsev2Ll26WMGTzQqEUEXnjSUcved5ERY9bCxSb7nlFsNE7d27t/0LIvdaMQqL7PCQugBhgIVFJgPrjZMegyOApoc/bqydOnUqtaOX6qqM6YABA2wwKRaMmKMlMxMhRDYJfzFBwQGe6GdNmjSxO4kdO3Y0TZs2TXW5tD/Hl4bIjfg8UjQH00aY1QnMKwr5s9gAiFKwAt3fjPVVIym7irH30Ezvoy7z0zx3eXTy37Zs1gt+W8vvNAKjFyyHtULDhg1tjmQirdIGNNfkfSRQGvFIWHfgS0suWM4nci/r+3Q2ILVe8DtC2R2Xq3VBJuu5cptO+iOb5s+cOdPccccdhsfjjz/e2kbnMqpiMQmL7DqSgBvn5rp161pNUS5ZZjPOOjc5ATZM8A3ATwBNT5tNSevLKvgroZFHAOT5/fffb4VNzmEnGlPSWbNm2eAXc+fOtQtLhAVS2VC3t1tY1jUy/YwdyvHjx1t/KvwhiNanUjgC5OPjh59oeXvssYc59dRTQxsxUfe3ws2jMFw53fuoq33SPHd1ZNxoVz7nOWmXEASxRGK9gRKCzW3Wlfy2sGbBHL5Pnz52bYFygkJeZc5JFZ1X64XCzKls1wWZiH1ZC4seKnYqCA2N/xVRFrGNzkW+l2IRFjEhwF8Jf6RMErR646DHwhLAHwVhD5PSRDtz+AdgashOHDfyxo0b2yiXmH6wI8hNgBs1ggGf4XOIA3usyUgQPcQPgsAqe++9txV4g7iG6syOABHruEd07do1J/fW7FqT3tm6v6XHq9iPTnUfdZWP5rmrI+Nmu/I9z/GPxSSVtQZm8Ch5WIcgPGDpgLDIazRYmMo/99xzCcFpvZAQS0HezGRdUFBh0aNEYtB///vfZuTIkTYATvfu3U2PHj0SLpy9c8p6LAZh8fbbb7c7OD179iwLhT4LCYEff/zRmnoQ1S42DQY7iviXcaNl95ldu80339wKg5iIoDUkCXvQgmE8RiIeYx3wj3/8Qz5U8XAcfP3YY4/ZVl144YUOtu6vTdL97a9M9E5qAsnuo6nPLMwRmueF4R72qxZ6nmOqOmrUKJtuIzbYElxZrwwfPrwUYq0XSuFw5kU66wInhMVYckRnRHCcNm2aDfGL4JiutjHqwiJ+n2iQyKGjEh0CBCkhcA1/RL0jNUb37qcY/A9JiUAhLcJ2221nH2+88cZNqS2OyjsAfqiuvPJKG+k4H9GN897BiF6QUOr8yBM51eWi+5vLo+N+2+Lvo662WPPc1ZEJR7sKNc+xdMIKCotAfGz5ixckcJkZMmSIBan1gtvzye+6IH6M/fQqZ2aoZV1s+fLl1hePsNEslvFtRNuIX16qEmVh8fHHH7faVyVDTTULwvk5N1ainZIcl40SfhBIqo6QiMDILh4mH2gY+fJi9sGiY5cM0mdkSuiSSy6xfsaKypgpwcKdRwAs5hHJvV0sur+5OCrha5N3H7355pudbLzmuZPDErpG5XOeEyjv7rvvtv6MfgSHW2+9zW52a73g/rTysy7wM+bxPd08/o0gXiPwYeLG3+zZs22OKRbQtWrVsmpuhEfC/RZT+f777w05cMiv50pBcMEsMt9mkK70P9ftQADD/5QFPT69+CmycYJfwIoVK+wj7/GHozkRUQlec/bZZ9vvStDjgHN68+bNnTE91fxLbwYefvjhNo0R9xI01C4V3d9cGo1wt8W7jxKog0TkLhXNc5dGI9xtydc8xwUGYRGLP+IqYPnEGp3I2/yxLt9+++3tI+97UZu1XgjH/ApqXZAXzWIyxNz8SU5MtD+CemAfTfCPWC1HVDWLqP7POOMMq2lKxifo97lZ4GeBgyx+dGi67rzzTiPfydyRZweH/EZoDP0WhEfCWRPCOsiCCSPz0AvHHOS1EtWt+ZeISnrv4SP+yCOPmGuuuSa9EwM+Wve3gAEXWfWZ3EfzgUjzPB+Ui+ca+ZjnbEwThd0TAv3S1XrBL6nCH5dqXZCJZrF8IbvFLiERVIkeieCE0Ej0R8wyMTkhbUAUC0IZg4VJop+C7ycCtPfHl7xDhw6GJN6ZlkmTJtnIq+wiPfnkkzZVw6effmrNgzOts6zz4vvg9YVHBNSoFgQxGKNR9FsY36AFRQRSdhH9CIrxYxfm+ccPZWzx+oYJUBgLu8KU+MAEhexLMd/fMCFHQx5bsKbx7ndhnWex/SnE80zuo0G3U/Nc8zzXcywf85y1RbqCotYLf450WNYLQawLCiosel80zO3QKpJjEIGlX79+1jSPEPEUzFdRgaM+j0KZMGGCNTdMty9oYsnBOG7cOFO5cmVz+umnp1uFPR5BFfNX/oiCSQROz/wAf7ogi9cH+uH9kWYlyqVt27Y2d6FLfWQOtm/fPq0meWMX5vmXVodDcjDza+LEic60tpjvb1tuuaWNLBg7GAR54/6qkh0B1+6jmuejSg2o5nkpHBm/cG2e0xGtFzIezoKdmOt1QbCSQQaYKlWqZDWLw4YNs+aRVFG9enVz00032aihmEgSIva7777LoHY3TsHsc7/99ku7MdiRs+jYa6+9bCJVcvIRMMgr3q5HvPaEz73P2Nlmp5tjFi9ebBo1amTrRKNLcvjYQkCWyy+/3DRp0sQeg1A5YsSI2ENK6n355ZdNmzZtbLLXpk2bJtUWen2gH95flSpVSur02umnPkxoPUGXNhLV87fffvtLXbE8vPpjd/i997zdf+8x9piHHnrIHHjggaZ27do2UT3J0WM/L7logicktmdnzqVCe2hXOsUbuzDPP7/9jZ8TjDvjH593KtUc9OZSokevLdnMLeogN+Ynn3ziVVfwx2K+v+FG8dRTT5WMARuc5FLDLz++lDV38Gnm3hxrXoxPM8m0vfpTzRtvDpd1/4s/hmiIBxxwgNWEevc3Arjge813AI0EaX5iNye8OsgNy/le+eGHH2wCcOa+V1eqNnvnJnp07T6qeZ56nqca70T3Re+92DlQ1neF47w5mGrd4B3nfScSzfdUbY69ntdW7zGK85z+ar0AhbKL3znqzT1q8+ajN2+817HHeFf1PvOO9d5P9pjrdYFzwmKijiOwoFkkLKwnLbdo0cJGj8SO+vnnny/5MUp0vmvvZWIvHNsHzJxYgDRs2NBqGGM/8/OciYjNOhoiUjbAFe0eSdkfeOCBkiouuugi88wzz1ifO47p06ePTQURe4x38GWXXWY4/u233zZ9+/Y1Q4cOLVWXd5zfx1T14SvCIubaa6+1jtp8UQn/fNVVV/m9xF+Oo49oO+OFZg5E40oaDI6h/6QtoL9+S7Zj7vc6fo/Lpj3FMP88jp42lQhjzZo1s6kqPAsHP3PQ0557c8qbY7zvlWznVuwC3auzkI/ZzC3aHeb5RdRj3CfIRUbhnsQGKIGrYkuqucPGDBEIuddwT4UJ92iCF5x00km2qmznTWx7vOePPvqoDb7lveaRzb+77rrLvPPOO1bDsPvuu9sgXPyGxBbm4dixY0veou1Vq1Ytec2TbNuc7dwq1ZgsX2TblmKY56nG28/9MdV3JXYYU60bYo/leaL5nqrNnOeNvff74N3f+Yzip44/j0z836s/8af5fzeb9oR5nvslnc4c9Vtntsflel2Ql2io2XbaO58fUEwv+QPEzJnvbwr9O9War2KqiqYKIZJcjgiVfn0Cvfrz9ZjpF8/TRqJNZCcrPllquu0fOHCgDSjEeeecc44haTypHliUEPCGVCcEZ2G3PNEx9s3//4fgFH8c7Ys3MfX6wM2UPrRr187unhOVK7aUVR83H4J6jBw5siRvZ506day2dNCgQVYAjq0r1fN16/5c9LBrvtVWW1lNdvw5sSa/pHzBhLd///72R8OP31+mYx7fjkK+9sYuzPMvXX7cc/DxwLqBR7Tg5KP0Owe5J1E4n0LALuZ9bIna3Mp0rkdhfv3tb3+zOXMffvhhex/CteKEE04o5Rvsd+506tTR+pWfd9551hKFTYpY/+5s503sHOQ59bPphsDL74BXsN7wCn56zGmEwPi8rAixDz74oHUp4feZ+zNpXW699Vbv9FKuE2G/j2qetzJlzXMGPdUcTXV/9Ptd8SZYWesG7xjvMdl8T9VmzsfqisKagXWmd3+3b27656cO79hEj5nOrUR1Feq9KNzP/bBLd476qTMXx+R6DoVKWIwFiLDRosUB9o/3SU8wc+ZMmzcGM1XywWA2g0nN/vvvbwPnEHE16MJuKr5g6Zr4+WnX6NGjNy00q28SlH838+fPN+yi9e7d2wp6sefzJUWAwRe0cePGVuCL/dx7jkAdWxCyaT8LAnxHEQrKOoYdc6/4PS62D2jn0Ax++eWXVoPp1cVjWfVh/rNq1SpzyimnxJ5iBbfVq1fbz2J3tL2bFgcn+gL9/PNPNvoo/kbJytSpU+3ib+HChXZRxWLIu1a8oJusjrC/Hzt2YZ1/6Y6BN3fQojCn0Gbz3Up3DpZ1Xc2tP+lEZX6RxJrfHzbgCEKGS4WnaaSn6cwdkmGTf3X8+PFmzJgxpTR1fueNN4e5dqL7H+9TuPezmcHvV6ywyGeTJ0829IvvwW677Wbbw29wbCF3Mn5r8+bN35QW6lO78XbQQQfFHmL8trnUSRF7USzznGHLdrzT+a5wvbLWDbHrFY5NNt/9tJlok6QZi3WhoU6v+KnDOzaqj1GZ56nGJ9056ud+zDF+1vCp2pbLz0MrLMZDILE5PkX8Udj5QXjEdMbTkCEE4XuBzxW7pfwIx+8Ixdeb7uvDDjvMmgqdeeaZ1mQtfvc13fpij0cARbtBQQikPwiMXIsbl1e8L+n3339nhTF+5DEL9QrBcXJd/GjXuGZ8H1h8sBvILl9sXsGy6vPU62wK1Kr118AR8UKfx4PrT5v2ng2gxHOvLFmyxHJNdk1sxGHIDxF+keS0w5yQBSGbFMVS4scujPMv3bHy5g7fJcy0MTd59dVXS3yz/M7BZNfV3PofmajMryOOOMIGZcOqgt8ZrB5ihcV07l9Ye5DLj3sTG1X8ZlHSmTfeHOa8RPc/3ue7TGRyrEE8rQnvewWLnVdffc0sXfqV3TRDECaidmzhvnv00UdvEjTvNQsWLLD3zNjP02lz7HlRe14s8zwX453Od4V5kuw3PH4OJZvvftu8bNkyayESu2bxruG3Du/4qD5GZZ6nGp9056if+7F3TLI1fKo2BfF56a3BIK5QoDoR0vhhvfTSS21AAAJAYF/O7ic/htiYo3Hkx5xgJUQFJXXHypUrs2oxodPbtGljbrvtNvuIUBFUYWf3v//9b6mgLlyLL2nDhg2sORQmTASy4TivIGiyy8ZucWzBN4Zz+Qw/FYTKso6JPdfvcbHn8Jw+sNsdv+NdVn0EUsBcFI0k/Yz/i9/x9nhwHAEi4susWbOs5jn+fe81c4edRExc0b4SeCLMAZa8fmX7GIX5l4qBN3datWplzj33XKspYqGR7hxMdh3NrWRk/rw3hPH+xveCgDZsVvJ7E1/8zh020M468yx7z+F3jGA3X3zxha0unXnjzeFk9z8qRFDE8iZZ0ns0KJyP1vHCCy8006dPN7/88ottS+w/hEg2Z/Hb5Hc1tqTT5tjzov48rPfRVPM8F+Pt97vizZGy1g3eMTwmm+9+2/zBBx9s+j40jK2y5LnfOkpOKJInYZ3nqYYn3Tnq537sHcO6I9EaPlWbgvj8f+qoIGp3rE7y3eFX5/nW0TzMLTEVItIcpj7s5JIQHYEAR34mAoEtEJ622GILXz3C7IjIRewwkT8SbSPBUbL1oSRCHtE+2cnADJBE75jZxptXsJjFhBSBZtSoUVZAitW24TPVqVMnu0PMc6ImsUuMj4kXfY88LXAiAE6yY2Jh4EvDcc2bNzdEJOO6aOHiS6I+oHKHeWwpqz7MAeGKCSuavTabhPP16zdsyhX5vuWCUOenoNVEQH7vvfesrw67hRRvw4DciIwZX1zad/fdd1uBgR8KNErFVhKNXdjmHz/ksd9DT+PD9x9zYqwOYrX0Xp/R7uAni48N3zf+cjEHNbf+9y3yWIf5/ub1hkBbBPrCCiG++L1/cf/8aZOJ/Lh7xtk5y0KYIGPcq3M9b4iwSqC4RIV7Ob+F+O+i3cSvsV69evb7En88G5EDBgwwNWrU+IuJXq7bHH/tsLwulnmei/H2+13xxr6sdYN3DI/J5nuqNuP+gisCigUUDIlKqjoSnRPF96Iwz/2sF9Kdo37GOtUa3k8duT6mqITFRPBIucAfKTm8gsaKxSO7o0RBxDSH99BKcSNAcOTHk51Y/tByxRYEC35QL7jgAivMfPTRR6ZVy1bm6muuNt26dYs9NK3n3q4vi1nMZ3lNSpH4woKXwiRm9ws/EjRjsQXBhyiz/LCzQ4wgzQInNiANN0PM7jiOgDf4s7CAiT3Gq/OGG26wbWExgaBJ8Jezzz7b+7jkMbYPCJfsnCTqQ6r6EBRpD2NDmzBDRqsb78dYcuEETxAUCT5BSdRWNNNsHjDumCCiLeZHhvGnfwRVKqYSO3ZhnX/eeMePm5fagPFmXnrF67P3XUJg9Eou5qDmlkfTlGi1wnx/83rDxqLnMuC9F/uYau6w2ciilAA53nzEGoaoqmzgXXHFFTm9J+G+QfqkRAWfHDY72URDw8jm4vDhpVMoxZ6HdjFR0Vz/k4p3T4n6PM/VeKf6rsTOtVTrBu/YZPM9VZtRKPAbwKa6lwfcq9N7TFWHd1zUH6Mwz/2uF9KZo37G3c8a3k89uTym3Cbzvz9yWWGu60IgQMNT6IJJEFrIOXM+3fQ4xwoRCJDkn2EhiaDCbivCJAEAGjRoYP0JETo5lx1mfhw4Bh8WJlcUCosavlAEqylrceS3r7mur6zrproWY4UW0VuslVVXqs8QNBE4XSksNjFtC3tJNYZ+++fVEy8s+j2/0MeR2oCNHRcK7WAzJQrFmxe5ur9FgUkh++DSfVTzvJAzofS1o/Y9dWmeQ1rrhcTzzfX1QrJ1QSZiX9FrFktPgeSv2CnGxJK/+ILAiCCJVo0/guoQNAWzRs/hGjM2Co/4yBEIIDYqUnydeh08AfxaEXDRSiYqCInY2atEnwDWAWjhk82F6BNQD0VABERABERABFIRKMb1goTFVLPCx+fk2uHPK+RdwdBcj30AAB7KSURBVLn/m2++KYmWySIUfyd8BfEnlKDo0SrcI2YSaAySFbSKKsVBgGiP06ZNK47OqpciIAIiIAIiIAIZESjG9YKExYymSvKT5syZYxMp49+BVgqfxhNPPNH06tWrJCCAK+ZiyXvh/xOi4xHIJ1cl1/Xlql2qx00Cmi9ujktUWqX5FZWRVD/KIhD2eR729pc1NvosdwQ0TzJnKWExc3Z/ORPHZ/zS8FvEH6xLly4lAuJfDtYbIiACIiACIiACIiACIiACIuAwAQmLORgc0je8+OKLVpPoheDPQbWqQgREQAREQAREQAREQAREQAQKRkDCYg7Q44/ohd7PQXWqQgREQAREQAREQAREQAREQAQKTkChHgs+BGqACIiACIiACIiACIiACIiACLhHwHnNIkFiyAnipaBwD2H6LSLNxtChQ9M/UWeElkBZUVcL0am5c+dqDhYCfEDXXLBgQUA1p1+t7m/pM9MZ/gi4dB/VPPc3ZjoqfQIuzXNar/VC+mPowhm5XBc4LyxWqlTJ/PLLL6ZatWousM9JG5o0aRKZpNU5AVIElZBk16XSqFEjG4TJpTapLZkTIPmuK0X3N1dGInrtcOk+qnkevfnlSo9cmucw0XrBlZmRXjtyuS5w3gy1SpUqZtWqVekR0tEiIAIiIAIiIAIiIAIiIAIiIAJZEXBeWNx6663NDz/8kFUndbIIiIAIiIAIiIAIiIAIiIAIiEB6BJwXFuvUqWPmz5+fXq90tAiIgAiIgAiIgAiIgAiIgAiIQFYEnBcWGzRoYD777LOsOqmTRUAEREAEREAEREAEREAEREAE0iPgvLDYrFkzM2fOnPR6paNFQAREQAREQAREQAREQAREQASyIuC8sNi2bVsza9Yss2HDhqw6qpNFQAREQAREQAREQAREQAREQAT8E3BeWKxRo4apXbu2mT59uv9e6UgREAEREAEREAEREAEREAEREIGsCDgvLNK79u3bm7Fjx2bVUZ0sAiIgAiIgAiIgAiIgAiIgAiLgn0AohMWePXual156yaxfv95/z3SkCIiACIiACIiACIiACIiACIhAxgRCISzusssupn79+uaFF17IuKM6UQREQAREQAREQAREQAREQAREwD+BUAiLdKdPnz7m3nvv9d8zh48sV66cw61T04IgoDEPgqrqhIBrc8u19miWRIeAS3PLpbZEZ4TVEwhobmkeZEsg13MoNMJi586d7RcoCtrFXA9itpNK5wdPwLUxd609wY9AdK9Qvrxbt3HNrejOtUL3zKW55VJbCj0uun5uCbg2t1xrT25pR7O2XK8L3FplpBizf/7zn+aWW24xGzduTHGk2x83btzYfPLJJ243Uq3LGYGlS5eaHXfcMWf15aIi2kO7VMJPgDy0jRo1cqYjur85MxSRaohr91HN80hNL2c649o8B4zWC85MD98NyfW6IFTC4lFHHWW23357M2zYMN/AXDywU6dO5vXXX3exaWpTAAQmT55sjjjiiABqzrxK2vPGG29kXoHOdIbAa6+9Zjp27OhMe3R/c2YoItUQ1+6jmueRml7OdMa1eQ4YrRecmR6+G5LrdUGohEUooVkcMWKE+fLLL31Dc+3Arbbayvz666+K7urawATUHnYK69atG1DtmVW72267hfo7lFmvo3fWhg0bzLp16wz3FFeK7m+ujES02uHafVTzPFrzy5XeuDbP4aL1giuzw187glgXhE5YrFevnjnrrLNM3759Q22Oetppp5knnnjC38jrqNAS+Pjjj80ee+zhZPubNWtmPvroIyfbpkb5IzBy5EjTo0cPfwfn8Sjd3/IIuwgu5ep9VPO8CCZfHrvo6jwHgdYLeZwIWV4qiHVB6IRFGPbr189sttlm5qabbsoSaeFOx8fol19+McuWLStcI3TlwAmMGTPGnHzyyYFfJ5MLnHrqqea5557L5FSd4wCBFStW2HuIS/6KHhbd3zwSeswFAVfvo5rnuRhd1eERcHGeYwVH0XrBGyW3H4NaF4RSWCQyE6aoTz/9dKj9rgYMGGDTgaxdu9bt2afWZURg1KhR5sQTT7QbGxlVEPBJbLh07drVPPbYYwFfSdXnmgCmp/fcc4+59NJLc111zurT/S1nKIu6Itfvo5rnRT09c9Z5l+b5V199ZdfYf//7382ee+5p3aa0XsjZUAdWUZDrglAKi5CuUaOGGT58uLnooovMvHnzAoMfZMWVKlUyl19+ubnxxhuNBMYgSee/7unTp5vffvvNtGzZMv8XT+OKBx98sPnjjz/Mu+++m8ZZOrSQBPhBGDJkiGGRyj3E1aL7m6sjE552heE+qnkenvnkaktdmOf/+c9/zHXXXWcOPfRQ0759ezNjxgzr4vD++++bihUrWnRaL7g6g4yNXRDkuqDcpoXiH+52P3XLnn/+eTN48GAzfvx4s8MOO6Q+wcEjMEW94YYbzPnnn29q1arlYAvVpHQIEOkWJ3U2MsJS7rjjDjv3XIvaGhZ++Wrnt99+a+6++24rKLqWjiUZA93fkpHR+2URCNt9VPO8rNHUZ8kIFGqer1+/3kyZMsWunXncfPPNrZBIZO3WrVuXaRGl9UKy0SzM++muCzIR+0IvLDI0d911l3n22WfNiy++aLbddtvCjFaWV/W0BdWqVTOnnHKK2WKLLbKsUafnmwDa4fvuu880adLEnHTSSaUuz/i6rAWisU899ZSZPXu26dOnj9l6661LtV8vCkuA6GY4rf/888+GfLOuz6V4Wrq/xRPR62QEyrqPJjvHlfc1z10ZCffbUYh5vmjRIvPqq69a962ZM2faKKft2rUzxx57rCFvaDpF64V0aAVzbKbrgqIVFhmGoUOHmpdeesm88MILpnr16sGMTB5qxaT20UcfNVWqVDF8iYlAxcBmMrh5aG7RXgK/Wf7Kly9vMN8gZyGvL7jggr/MPxYQ++yzj9l7772tjyD5Ql3dDFi5cqXVXG3cuNHOP9rM3OO1yv8I8ENfuXLl/72R42fMK+YTwjtza82aNaZnz56mYcOGOb5SfqsL4/0t6LHO7wi4dbV07qNutfzP1hD8wzPRi21fGOd5bPv1PLcECjXPV69ebaZOnWoFxLffftusXbPWHNTyINOmTRubOxF3rmyK1gvZ0Ev/3FytCzKRJyKhWfSQIzCOHTvWYJqa7ZfAq7NQj3zJMa0Nqz9mobgV4rqkxsB0I9GiwWvPTz/9ZJ555hmrAf/iiy8MCZ2Jkrr//vt7hzj1yCJowoQJ5pNPPnGqXS40Bl9UtHz4ddSuXTvQJiEcMldcyqOYiw6H5f729ddfG8zEsPbATEslOAJ+7qPBXd1/zT/++KO1Yho3bpzdzPnwww+TavrDMs/9915HZksgyHlOhH2Ewnfeecf6HC5cuNBqDA855BBz+OGH2w3rbNuf6HytFxJRCe69bNcFRS8sMjSYpJK/8MknnzT169cPbrRUswhkSGDx4sV2jqIFJ8LYcccdZ7p3727q1KmTYY06Ld8EMOUh1+vjjz/urMCfbyZRu960adNMr169zLBhw8xhhx0Wte6pP2kQIBw9G9FYL82ZM8cccMABdhOHaJFVq1ZNoyYdKgK5I8DGBf6GnnBIFFPcYFq0aGFatWplA+wFaQGTu56opnwSkLD4/7TJHXfttdfa0L8HHXRQPsdA1xKBtAhwk8f2/+WXXza77767TbVxwgknaAGSFsXCHIxmAf9BtIzNmzcvTCN01UAIfPDBB3YD59Zbb7VWA4FcRJU6TYAgZeS9w8Ji/vz5NuhH586d7XzATURFBPJNgCBKb775po1eTpTS5cuXm7322ssKh0QqZRPDVReXfLPS9ZITkLAYwwZVPNFF//GPf9hkojEf6akIOEeAyGQIHwiOs2bNsguTbt26WdMRtI8qbhLAtHjQoEGGDSoSdKuEnwB+ot26djPXD77eav3D3yP1wC8BrD5wY5k0aZLhedu2bc3RRx9t/bvKcjPwW7+OE4F0CDAHEQ7fe+89g3BIgDPiCKAEIWIpsRDwY1MRgXQISFiMo/Xll1/aoBDsvODPqB2XOEB66SSB77//3owePdoKIMu/WW46dupo/Rv5YVBxjwABqdBAYVa86667utdAtcg3AXzEjz/+eHPllVfa75zvE3VgaAkw5mz2ICASgh4BEdcAgoBozRDaYQ1lw+fOnWveeustqzlk0/j33343++y7jxUO0RzuueeeoeyXGu0WAQmLCcYDx1vy3S1YsMA8+OCDZpdddklwlN4SATcJsJAZNWqUFUTwPSDENcE2dt55ZzcbXKStGjFihBk+fLj1a9LYhHMSEFae71f//v2tr2I4e6FW+yHw8ccf23vqxIkTDUFB8Ek95phjrIAoTY0fgjomFwSIpI5wiH80z9Fe77vvviWaw7BHv84FI9WRewISFstgStCbIUOGmMsuu8z06NGjjCP1kQi4SYAfFQRHgqs0aNDA4Nso/0Z3xur222+3gbUwJ95hhx3caZhakpIAVigIC+eee645++yzUx6vA8JHADM+cjEjIBLRmOiQjDkaGxURCJrAqlWrrDnp9OnTrUkpkca32247Kxy2bNnSELG0bt26QTdD9YtARqn4IpU6I9UcwP6bhOO1atUyd955p9l2221TnaLPRcA5AmjLEUiefvrpEv/Grl272t3xChUqONfeYmrQ4MGDbcobIieyEFBxn8A333xj/dLYROzXr5/7DVYLfRMgdgERTAkgRuoTctwiILqassh3x3Sg8wRIkfXOO++amTNnWOGQgEloCvfbbz87/w499FCtQZ0fxWg2UJpFH+P6+++/m5tvvtkGErniiitsknQfp+kQEXCSAElxERoJysCPEfkeMVPFlEWlMAS4r7BIRYuxzTbbFKYRuqovAvioEcAEH7UBAwb4OkcHuUtg48aNNiAI3z0sMMhPioCIeTGxC1REIAgCGzZsMOTb9FJYfPTRR8b8Ycyee+1pI5UeeOCBNhiNfGCDoK860yUgYTENYjgSX3jhhXYxd9ttt5mddtopjbN1qAi4R+Dzzz+3aRwItMKPkuffKNOW/I8Vfm+YGRF6nwWrinsEyFGGoNihQwcb0da9FqpFfgiwUJ88ebL1QeQRjT4CYpcuXawmx08dOkYE0iHw008/2U2JGTP+1BqynmQNSRA60ldgVqpgZ+kQ1bH5JCBhMU3aALvvvvvsHyZIF198saKfpclQh7tJAM0WGkfMr/jRYuF04oknStOVp+Hi3nLeeecZfOGItFipUqU8XVmX8UOAEPQkVGfH/6abbvJzio5xiACphtAcokFEQGRD7IgjjrD3OS3SHRqoiDQFYfDddzEpnWnIwfrdd9+ZZs2aWQse7iGksth6660j0lt1I+oEJCxmOMJ88a+66irr/0XOtE6dOmVYk04TAbcIsKgaP368IR8gjvUtWrSwQiNzXCYxwY4VJnG9e/c27EIjuIt3sLz91r569Wprdtq0aVNzxx13+D1NxxWYwNq1a21wGnwQyT1Xv359q0Ek1YkiEBd4cCJ0eaLjehpDBEOilG655ZamefPm1tcQrSHPy5UrF6FeqyvFREDCYpajPX36DHP55QPtjeHaa6+1yU+zrFKni4AzBBBaEBrRdJEmgGiAJ510kqIBBjhC+EhjtYDgSERmBSAKELaPqhE4iCBcp04dc++992rB54NZIQ9BsEc4ZMOLxOSNGze2psMEqSFQnYoIZEOARTP+hZ7GkJQqXiAafFw9reGOO+6YzWV0rgg4RUDCYo6GgwU1QXDYeb766qtle54jrqrGHQJLliyxaR7wb0T7iH/jySefLB+fAIYIvgQdYnf63//+t1EetwAg+6iScejWrZs1xX7ooYc0Dj6YFeIQTIQxLyXiM4nJ99hjDysgYjasCMOFGJHoXJPIx+Q0RHOIkPjZZ5+ZGjVq2GT3+BsiHCIkbrbZZtHptHoiAnEEJCzGAcnmJQsLFhTsPrdp08Zceumldjc6mzp1rgi4SID8Y+RvnDBhgt2tR3BE41izZk0XmxvKNq1bt85GXib/4ogRI6TRyvMoEgSle/fuNn3C448/rsVgnvmnutz3339fIiCi3SGac+fOnW2aC0UUTkVPnycigBUBmw1oDREO58yZY3gPYRAzUlJYIBxqfiWip/eiTEDCYgCjy80FgfGRRx6R0BgAX1XpDgFMJl955RXrX/fWW2/ZH1RM9hAeK1eu7E5DQ9qSNWvWWF+5Bg0amGHDhoW0F+FrNvO6V69edqE4cuRI+Y46MoTLly+3AiJmpmh4CBKCLzURahVB2JFBClEzPv30UysU4mOIryHBxerVq2c3Hvbee28bpZR7r4oIFDsBCYsBzgAWep7Q2Lp1a3PRRReZRo0aBXhFVS0ChSOArxC5G5999lm7I9uuXTtrwsejzCgzHxeCJyB8ozkZOnRo5hXpTF8E8BXt06ePIZ8i7gUVK1b0dZ4OCobAV199ZdPJYMVAqp9DDjnECoekutCGVDDMo1gr32d8WBEKMSclTVG1atVshFLPnBQBUd/3KI6++pQtAQmL2RL0cT7mZJin8kc0NoRGomOpiEBUCSxbtsxqGxEeV65caRd3mKliyqOSPgECDaE9adu2rfnXv/6VfgU6wzeB888/3yxcuNAKKBJGfGPL6YGLFy+2QbVI4/PFF19YCx38Dw877DAt5nNKOpqVcb8kkjcaQ/7QIGLxRUyJPffc05qTtmrVSv6s0Rx+9SoAAhIWA4CarEpMm0aPHm3uueceuyN61llnWRMzRTtMRkzvR4EAfh9PPfWUGTt2rDUV8wLjkJBYxT8B0vUgMBLV8fLLL/d/oo70TeCSSy6xWocxY8aYqlWr+j5PB2ZPYP78+dYqYdKkSVary8bIcccdZzdI9BuZPd+o1rBq1SrrZ4jGkD/Mk3/88UcbeI1AR/gZojFko15FBEQgMwISFjPjlvVZb7zxhhk+fLghcStRD88880ztcmVNVRW4TmDq1KlWcHzttdcMviD4N3bp0kXJiX0OHJH5EBhJrdGvXz+fZ+kwPwSuvPJKm4uPTQ0FsPBDLPtjZs+ebU3XERCJaNqhQweDBpEAcTJdz55v1GpAO/jhhx9aP0OCGqExxIoFQdALQoNJKRpEFREQgdwRkLCYO5YZ1YS5DX6NE8ZPMC0ObGHOOOMM5bDLiKROChOBX3/91Ya5R9NOZFXMshEc8UNSIvqyRxIfLrSLZ599tjnnnHPKPlif+iJw/fXX2+TtpF9QqgVfyDI+CO0P6XfwQSTiLLlbERAPPvjgjOvUidEjQHR5NhO8lBX4GBKApm7dulZTiDkpftw8Km1F9MZfPXKLgIRFR8YDv0YCgzz55JMGe3vy1/Xs2VM73I6Mj5oRHAFMhpj7/LF5cuSRR9qUEVo8Jme+aNEia6KHdvH0009PfqA+SUnglltuse4BRNjcfvvtUx6vA9In8O677xr4okEsV66c6dix4yYN+TGmRYsD0q9MZ0SOAC46aArxL/Qe+S2oU6dOiZ9hixYtrGCozcTIDb86FAICEhYdHCR8N0i7wc4rphWYqeLYL7McBwdLTcopgSVLltgNEzQ8aB89/8aGDRvm9DpRqGzevHnm+OOP3+S/eMWmfICnRKFLee8D/uMEHsP0VD60ucPPwoJUOnyPSa1DoCAERDSI+I+pFC8BNsbRGJLLEDNSIpMSxKh27drWz9DLZ4g5aZUqVYoXlHouAg4RkLDo0GDENwUzjHHjxtnFMyHD+aElSbTSb8ST0usoEsBcbdSoUXbTpGbNmlZw7NatmyFJvcqfBAge1PXErua666+zgqO4+Cfw4IMPmrvvvtuaRO6yyy7+T9SRCQmgHZoyZYrl+cbrb5htq29rrQTwSW7cuHHCc/RmtAkQfAZhkET3CIgEn8GUFI1hs2bNTJMmTWwAGkxJlScz2nNBvQs3AQmLIRk//JQee+wxu1NbqVIlu3Du2rWrdsNDMn5qZuYEyHtHQBz8GydPnmyIcId/I1o17Twba7qF9QHmlCQoV0lN4IknnjA33XSTDa6ipNupeSU7gg1NvpP4IBK0bccddzRHHHGEDVql6JPJqEXzfdxn0BbiW0gQGiwfCMi16667Wgspgs7gY8j9W6ak0ZwD6lV0CUhYDOHYciPGv2v8+PGmVq1a1ncJc70aNWqEsDdqsgj4J0A0vOefH7Pp7zm7ICFBN9pGzLSLOcjB9OkzTK9ep5k777zTBgzxT7T4juTeec3V15hnnn3GajaKj0B2PcY8nPyHmO6iSUQYwM+YzRtpaLNjG5azSXBP4BkEQzSHCIZEs2WDAI0h7jP8IRjKfSYso6p2ikByAhIWk7MJxScEDnjuuefMq6++ak07MFWV4BiKoVMjsyTAguWZZ56xydO//vpr6xPVtWu3og2a8fbbb5vevXub+++/3xx66KFZ0o3m6Qg4AwYMMCNHjjT4Rqn4I8AmDT70BKnBFxFtLD6I5EGUr6c/hmE9ihgKmJAiFOJj+OmcT836DeutaTHmxV5EUrnHhHWE1W4RSE1AwmJqRqE4goHEHIhdcx7r1atnNQyE2GfnV0UEokxg4cKFVgAgoAaFTRNMM3fbbbcod/svfXv99dfN+eefbx5++GGbjuQvBxTxG2jDiB6LOf/+++9fxCT8dX316tVWOMRvftq0aVYLy+8Jf4oa649hmI5iQwAfaC+xPQIi99WqVavawDMIhmywEKBIGuQwjazaKgLZE5CwmD1D52ogd9Wbb75pd4JZPOLjiJkepkKtWrVyrr1qkAjkkgALW/wbJ06caLUeaD9OPPHEojHTJj3BxRdfbB5//HEbPCKXbMNa19SpU21eSoLaKCVL8lHE7wztKwIiQUkwJezcubO1VqlevXryE/VJqAhglYF/IQFn0BguWLDAYJ1BDkOEQgLPEHSGiKTbbLNNqPqmxoqACOSegITF3DN1rkbyFvHjj+CIwzl+XiQ/JxkyIc1VRCCKBNg08QLjsHnCjjiRGTHTjvq8J+DI5ZdfbqPJsuAv5vLee+/ZXJSkyWjfvn0xo0jY9++//94KiJiY8luBWSECItr5atWqJTxHb4aDAAs8/AoxHyWHIVHV0R7yPumIMB1FKMS3kAA0FSpUCEfH1EoREIG8EpCwmFfchb/YsmXLbGActC78iLCQ7NChg11EKXpd4cdHLQiGwJo1a6xvL/69zPu2bdtabSNzP6qBcfDnHDRokDVNL9bUBWjHevToYW677Ta7QRbM7ApfrcuXL7cCIlpEtEsHHXSQjaR79NFHK4VB+IbTtpgAM9zbEAoZU8xIyV9IqiHM8REKEQjRFsrPNKSDrGaLQIEISFgsEHgXLssCGj8eNI4EymEytGzZ0i6kMVvVrrILo6Q25JoAC+Wnn37ahvv/dsW35qiOR5mTTjopkiabmKIOGTKkKFNEoCVjXAcPHmwDseR6HoWtvqVLl9pgUETRRsOEhQnCIVYmUde0h22sUrXXBprZpC1kjs+dO9eO548//mh9CREK0RoiFBKZFJ9DFREQARHIhoCExWzoRexcnNmJqkqAHHbkCZKDfw+mWy1atJCJSsTGW90xhkh/o0aNsvlLN99885LAOMz9qBT89IYNG2aF4yj1q6zxIZQ/qRyuuuoqKzCWdWyUP0Oz9Pzzz1v/3cWLF9uNQMxL2QysWLFilLseib6tXLnSagrRGDKnERIZUwIMEbgO30IEQjSGCIgqIiACIhAEAQmLQVCNQJ34e02fPt36fBGSn4UGviwIj+xIK+x8BAZZXShFAO06gXEIELPzzjtbYYPAONttt12p48L44t577zUIjZgdRt0EbdGiRdYvtX///ptyT/YK43Bl1Wa0hkTFxmoEH/V27dpZHpheKxl6VmgDO5nclQiCCIWYjxJwZt7ceWbDbxts7kJ8C/nD7xoBsUqVKoG1RRWLgAiIQDwBCYvxRPQ6IQGi5BEsBMGRZLwrVqywwiO+Lq1bt7YmL0q+mxCd3gwZATZKXnnlFZvDkZxyLNBOOOEEq3UMs7kefnvkFyTYFX5MUSxffvmlTe1w7rnn2uinUexjoj7ho4Y/LhsdP6780bTv0N7O1zZt2kTWJzcRhzC8hzUDQWY8v0I2N4glQCRSL6k9giGbs0pREoYRVRtFIPoEJCxGf4wD6SH+EVOmTCkRHvmxI1jOgQceaLWP5DFTZLVA0KvSPBIg1xxmfCzE2fFHO9O1a1cbFCqMmyM33HBDSeTLGjVq5JFk8JdCi4YPHgFtyKcY9fLhhx9a0+IJEyYYcuQR3RoTUzbvypUrF/XuO98/NlQJNoNPISakCIdLliyxsQAQChs0aGB/MxEMMSUN4/3E+UFQA0VABHJCQMJiTjCqEjSP5DLDlA/zVXb4+QFkdxTBkcA5ytekeRJmAvGBcTp26mi6desWusA411xzjQ1qRaqEbbfdNsxDUtL27777zgqKCEsDBw4seT9qT6ZPn2Feemms9UHcuHGjzZ2LgMz9VaUwBPjtYyOJYDNoDREO8f9HYEcoxJfQEwwxIVXguMKMk64qAiKQOYFMhMX/A+wZSGvMbsSxAAAAAElFTkSuQmCC;" vertex="1" parent="1">
          <mxGeometry x="-170" y="1250" width="907" height="192" as="geometry" />
        </mxCell>
        <mxCell id="FL9K62EaHGy_0KdFEDnW-30" value="ВыборБренда" style="swimlane;fontStyle=1;align=center;verticalAlign=top;childLayout=stackLayout;horizontal=1;startSize=30;horizontalStack=0;resizeParent=1;resizeParentMax=0;resizeLast=0;collapsible=0;marginBottom=0;html=1;rounded=1;absoluteArcSize=1;arcSize=50;whiteSpace=wrap;" vertex="1" parent="1">
          <mxGeometry x="170" y="950" width="140" height="55" as="geometry" />
        </mxCell>
        <mxCell id="FL9K62EaHGy_0KdFEDnW-34" value="ВыборЦвета" style="swimlane;fontStyle=1;align=center;verticalAlign=top;childLayout=stackLayout;horizontal=1;startSize=30;horizontalStack=0;resizeParent=1;resizeParentMax=0;resizeLast=0;collapsible=0;marginBottom=0;html=1;rounded=1;absoluteArcSize=1;arcSize=50;whiteSpace=wrap;" vertex="1" parent="1">
          <mxGeometry x="330" y="950" width="140" height="55" as="geometry" />
        </mxCell>
        <mxCell id="FL9K62EaHGy_0KdFEDnW-35" value="ВыборМеханизма" style="swimlane;fontStyle=1;align=center;verticalAlign=top;childLayout=stackLayout;horizontal=1;startSize=30;horizontalStack=0;resizeParent=1;resizeParentMax=0;resizeLast=0;collapsible=0;marginBottom=0;html=1;rounded=1;absoluteArcSize=1;arcSize=50;whiteSpace=wrap;" vertex="1" parent="1">
          <mxGeometry x="490" y="950" width="140" height="55" as="geometry" />
        </mxCell>
        <mxCell id="FL9K62EaHGy_0KdFEDnW-36" value="ВыборМатериала" style="swimlane;fontStyle=1;align=center;verticalAlign=top;childLayout=stackLayout;horizontal=1;startSize=30;horizontalStack=0;resizeParent=1;resizeParentMax=0;resizeLast=0;collapsible=0;marginBottom=0;html=1;rounded=1;absoluteArcSize=1;arcSize=50;whiteSpace=wrap;" vertex="1" parent="1">
          <mxGeometry x="650" y="950" width="140" height="55" as="geometry" />
        </mxCell>
        <mxCell id="FL9K62EaHGy_0KdFEDnW-37" value="ВыборЦены" style="swimlane;fontStyle=1;align=center;verticalAlign=top;childLayout=stackLayout;horizontal=1;startSize=30;horizontalStack=0;resizeParent=1;resizeParentMax=0;resizeLast=0;collapsible=0;marginBottom=0;html=1;rounded=1;absoluteArcSize=1;arcSize=50;whiteSpace=wrap;" vertex="1" parent="1">
          <mxGeometry x="810" y="950" width="140" height="55" as="geometry" />
        </mxCell>
      </root>
    </mxGraphModel>
  </diagram>
  <diagram id="NRU9Yulu_dXbEhS77t4e" name="Page-2">
    <mxGraphModel dx="2208" dy="917" grid="1" gridSize="10" guides="1" tooltips="1" connect="1" arrows="1" fold="1" page="1" pageScale="1" pageWidth="827" pageHeight="1169" math="0" shadow="0">
      <root>
        <mxCell id="0" />
        <mxCell id="1" parent="0" />
        <mxCell id="oPtB8-bLimxsmcsgXv5w-1" value="State1" style="shape=folder;align=center;verticalAlign=middle;fontStyle=0;tabWidth=100;tabHeight=30;tabPosition=left;html=1;boundedLbl=1;labelInHeader=1;rounded=1;absoluteArcSize=1;arcSize=10;whiteSpace=wrap;" vertex="1" parent="1">
          <mxGeometry x="-550" y="221.5" width="140" height="90" as="geometry" />
        </mxCell>
        <mxCell id="oPtB8-bLimxsmcsgXv5w-2" value="" style="ellipse;html=1;" vertex="1" parent="1">
          <mxGeometry x="-560" y="610" width="30" height="30" as="geometry" />
        </mxCell>
        <mxCell id="oPtB8-bLimxsmcsgXv5w-3" value="" style="endArrow=open;html=1;rounded=0;align=center;verticalAlign=top;endFill=0;labelBackgroundColor=none;endSize=6;" edge="1" parent="1" source="oPtB8-bLimxsmcsgXv5w-2">
          <mxGeometry relative="1" as="geometry">
            <mxPoint x="-447" y="625" as="targetPoint" />
          </mxGeometry>
        </mxCell>
        <mxCell id="oPtB8-bLimxsmcsgXv5w-4" value="State1&lt;br&gt;[invariant1]&lt;br&gt;&amp;lt;&amp;lt;extended/final&amp;gt;&amp;gt;" style="swimlane;fontStyle=4;align=center;verticalAlign=top;childLayout=stackLayout;horizontal=1;startSize=60;horizontalStack=0;resizeParent=1;resizeParentMax=0;resizeLast=0;collapsible=0;marginBottom=0;html=1;rounded=1;absoluteArcSize=1;arcSize=50;whiteSpace=wrap;" vertex="1" parent="1">
          <mxGeometry x="-530" y="390" width="140" height="176" as="geometry" />
        </mxCell>
        <mxCell id="oPtB8-bLimxsmcsgXv5w-5" value="" style="fillColor=none;strokeColor=none;container=1;collapsible=0;" vertex="1" parent="oPtB8-bLimxsmcsgXv5w-4">
          <mxGeometry y="60" width="140" height="50" as="geometry" />
        </mxCell>
        <mxCell id="oPtB8-bLimxsmcsgXv5w-6" value="State2" style="html=1;align=center;verticalAlign=middle;rounded=1;absoluteArcSize=1;arcSize=10;whiteSpace=wrap;" vertex="1" parent="oPtB8-bLimxsmcsgXv5w-5">
          <mxGeometry x="30" y="10" width="80" height="30" as="geometry" />
        </mxCell>
        <mxCell id="oPtB8-bLimxsmcsgXv5w-7" value="" style="line;strokeWidth=1;fillColor=none;align=left;verticalAlign=middle;spacingTop=-1;spacingLeft=3;spacingRight=3;rotatable=0;labelPosition=right;points=[];portConstraint=eastwest;" vertex="1" parent="oPtB8-bLimxsmcsgXv5w-4">
          <mxGeometry y="110" width="140" height="8" as="geometry" />
        </mxCell>
        <mxCell id="oPtB8-bLimxsmcsgXv5w-8" value="behavior1" style="fillColor=none;strokeColor=none;align=left;verticalAlign=middle;spacingLeft=5;whiteSpace=wrap;html=1;" vertex="1" parent="oPtB8-bLimxsmcsgXv5w-4">
          <mxGeometry y="118" width="140" height="25" as="geometry" />
        </mxCell>
        <mxCell id="oPtB8-bLimxsmcsgXv5w-9" value="" style="line;strokeWidth=1;fillColor=none;align=left;verticalAlign=middle;spacingTop=-1;spacingLeft=3;spacingRight=3;rotatable=0;labelPosition=right;points=[];portConstraint=eastwest;" vertex="1" parent="oPtB8-bLimxsmcsgXv5w-4">
          <mxGeometry y="143" width="140" height="8" as="geometry" />
        </mxCell>
        <mxCell id="oPtB8-bLimxsmcsgXv5w-10" value="transition1" style="fillColor=none;strokeColor=none;align=left;verticalAlign=middle;spacingLeft=5;whiteSpace=wrap;html=1;" vertex="1" parent="oPtB8-bLimxsmcsgXv5w-4">
          <mxGeometry y="151" width="140" height="25" as="geometry" />
        </mxCell>
        <mxCell id="oPtB8-bLimxsmcsgXv5w-11" value="Старт" style="swimlane;fontStyle=4;align=center;verticalAlign=top;childLayout=stackLayout;horizontal=1;startSize=30;horizontalStack=0;resizeParent=1;resizeParentMax=0;resizeLast=0;collapsible=0;marginBottom=0;html=1;rounded=1;absoluteArcSize=1;arcSize=140;whiteSpace=wrap;" vertex="1" parent="1">
          <mxGeometry x="-530" y="120" width="140" height="80" as="geometry" />
        </mxCell>
        <mxCell id="oPtB8-bLimxsmcsgXv5w-12" value="behavior1" style="fillColor=none;strokeColor=none;align=left;verticalAlign=middle;spacingLeft=5;whiteSpace=wrap;html=1;" vertex="1" parent="oPtB8-bLimxsmcsgXv5w-11">
          <mxGeometry y="30" width="140" height="25" as="geometry" />
        </mxCell>
        <mxCell id="oPtB8-bLimxsmcsgXv5w-13" value="behavior1" style="fillColor=none;strokeColor=none;align=left;verticalAlign=middle;spacingLeft=5;whiteSpace=wrap;html=1;" vertex="1" parent="oPtB8-bLimxsmcsgXv5w-11">
          <mxGeometry y="55" width="140" height="25" as="geometry" />
        </mxCell>
        <mxCell id="S8csJaeQ3eJkUpWspcCP-1" style="rounded=0;orthogonalLoop=1;jettySize=auto;html=1;exitX=0.718;exitY=0.482;exitDx=0;exitDy=0;exitPerimeter=0;entryX=0;entryY=0.5;entryDx=0;entryDy=0;" edge="1" parent="1" source="S8csJaeQ3eJkUpWspcCP-2" target="S8csJaeQ3eJkUpWspcCP-6">
          <mxGeometry relative="1" as="geometry" />
        </mxCell>
        <mxCell id="S8csJaeQ3eJkUpWspcCP-2" value="" style="html=1;points=[];perimeter=orthogonalPerimeter;fillColor=strokeColor;" vertex="1" parent="1">
          <mxGeometry x="599" y="251.5" width="5" height="80" as="geometry" />
        </mxCell>
        <mxCell id="S8csJaeQ3eJkUpWspcCP-3" value="Action1&lt;br&gt;(Operation1)" style="html=1;align=center;verticalAlign=top;rounded=1;absoluteArcSize=1;arcSize=10;dashed=0;whiteSpace=wrap;" vertex="1" parent="1">
          <mxGeometry x="409" y="271.5" width="140" height="40" as="geometry" />
        </mxCell>
        <mxCell id="S8csJaeQ3eJkUpWspcCP-4" style="edgeStyle=orthogonalEdgeStyle;rounded=0;orthogonalLoop=1;jettySize=auto;html=1;entryX=0.247;entryY=0.497;entryDx=0;entryDy=0;entryPerimeter=0;" edge="1" parent="1" source="S8csJaeQ3eJkUpWspcCP-3" target="S8csJaeQ3eJkUpWspcCP-2">
          <mxGeometry relative="1" as="geometry" />
        </mxCell>
        <mxCell id="S8csJaeQ3eJkUpWspcCP-5" style="rounded=0;orthogonalLoop=1;jettySize=auto;html=1;exitX=0.407;exitY=0.479;exitDx=0;exitDy=0;exitPerimeter=0;entryX=0;entryY=0.5;entryDx=0;entryDy=0;" edge="1" parent="1" source="S8csJaeQ3eJkUpWspcCP-2" target="S8csJaeQ3eJkUpWspcCP-7">
          <mxGeometry relative="1" as="geometry">
            <mxPoint x="613" y="300.5" as="sourcePoint" />
            <mxPoint x="749" y="211.5" as="targetPoint" />
          </mxGeometry>
        </mxCell>
        <mxCell id="S8csJaeQ3eJkUpWspcCP-6" value="Action1&lt;br&gt;(Operation1)" style="html=1;align=center;verticalAlign=top;rounded=1;absoluteArcSize=1;arcSize=10;dashed=0;whiteSpace=wrap;" vertex="1" parent="1">
          <mxGeometry x="699" y="229" width="140" height="40" as="geometry" />
        </mxCell>
        <mxCell id="S8csJaeQ3eJkUpWspcCP-7" value="Action1&lt;br&gt;(Operation1)" style="html=1;align=center;verticalAlign=top;rounded=1;absoluteArcSize=1;arcSize=10;dashed=0;whiteSpace=wrap;" vertex="1" parent="1">
          <mxGeometry x="699" y="314" width="140" height="40" as="geometry" />
        </mxCell>
      </root>
    </mxGraphModel>
  </diagram>
</mxfile>
